<?xml version="1.0" standalone="no"?>
<!DOCTYPE svg PUBLIC "-//W3C//DTD SVG 20010904//EN" "http://www.w3.org/TR/2001/REC-SVG-20010904/DTD/svg10.dtd">
<!-- Created using Krita: https://krita.org -->
<svg xmlns="http://www.w3.org/2000/svg" 
    xmlns:xlink="http://www.w3.org/1999/xlink"
    xmlns:krita="http://krita.org/namespaces/svg/krita"
    xmlns:sodipodi="http://sodipodi.sourceforge.net/DTD/sodipodi-0.dtd"
    width="61.44pt"
    height="61.44pt"
    viewBox="0 0 61.44 61.44">
<defs/>
<path id="shape0" transform="matrix(1.18774694089213 0 0 1.18774694089213 3.6750021558862 0.347170995274218)" fill="#66111E" stroke="#ffff" stroke-width="0.8" stroke-linecap="square" stroke-linejoin="bevel" d="M24.75 50.6486C23.31 51.3086 21.99 51.3086 20.79 50.6486C19.59 49.9886 13.26 46.3286 1.8 39.6686C0.66 38.7686 0.09 37.7186 0.09 36.5186C0.09 35.3186 0.06 27.9686 0 14.4686C0.3 13.0286 0.87 12.0386 1.71 11.4986C2.55 10.9586 8.94 7.26857 20.88 0.428571C22.32 -0.171429 23.61 -0.141429 24.75 0.518571C25.89 1.17857 32.25 4.83857 43.83 11.4986C44.91 12.4586 45.45 13.3586 45.45 14.1986C45.45 15.0386 45.48 22.5086 45.54 36.6086C45.36 37.9886 44.7 39.0386 43.56 39.7586C41.85 40.8386 41.85 40.8386 24.75 50.6486Z" sodipodi:nodetypes="czczczczczccc"/><g id="group0" transform="matrix(0.06 0 0 0.06 -0.255804049867822 0.989999990204538)" fill="none">
  <path id="shape7" transform="translate(1108.754, 307.89)" fill="#5586a4" stroke-opacity="0" stroke="#000000" stroke-width="0" stroke-linecap="square" stroke-linejoin="bevel" d="M35.094 17.537C35.094 20.678 34.308 23.604 32.738 26.316C31.168 29.028 29.027 31.166 26.315 32.728C23.603 34.291 20.676 35.073 17.536 35.073C14.41 35.073 11.491 34.292 8.779 32.728C6.067 31.166 3.925 29.028 2.355 26.316C0.784 23.604 0 20.677 0 17.537C0 14.411 0.784 11.489 2.355 8.768C3.925 6.048 6.067 3.908 8.779 2.344C11.491 0.782 14.41 0 17.536 0C20.677 0 23.603 0.781 26.315 2.344C29.027 3.908 31.168 6.048 32.738 8.768C34.308 11.489 35.094 14.411 35.094 17.537ZM31.692 17.537C31.692 13.63 30.309 10.293 27.544 7.527C24.777 4.761 21.441 3.379 17.535 3.379C13.628 3.379 10.291 4.762 7.525 7.527C4.759 10.293 3.377 13.63 3.377 17.537C3.377 21.444 4.76 24.78 7.525 27.546C10.291 30.312 13.628 31.694 17.535 31.694C21.441 31.694 24.777 30.311 27.544 27.546C30.309 24.78 31.692 21.444 31.692 17.537ZM9.582 8.16L17.972 8.16C20.346 8.16 22.067 8.638 23.131 9.596C24.195 10.553 24.729 11.836 24.729 13.446C24.729 14.702 24.323 15.79 23.511 16.71C22.699 17.629 21.419 18.296 19.672 18.709C20.392 18.985 20.921 19.276 21.258 19.582C21.733 20.012 22.231 20.647 22.752 21.49C22.782 21.551 23.793 23.36 25.786 26.914L20.269 26.914C18.477 23.345 17.274 21.21 16.662 20.513C16.048 19.817 15.435 19.467 14.822 19.467C14.684 19.467 14.492 19.49 14.248 19.536L14.248 26.914L9.582 26.914ZM14.248 16.111L16.27 16.111C17.618 16.111 18.569 15.893 19.121 15.457C19.672 15.019 19.948 14.457 19.948 13.767C19.948 13.078 19.683 12.514 19.155 12.078C18.626 11.641 17.725 11.424 16.454 11.424L14.248 11.424Z" sodipodi:nodetypes="cccccccccccccccccccccccccccccccccccccccccccccc"/>
 </g><path id="shape01" transform="translate(12.3599995093489, 14.3399994307494)" fill="#a78086" fill-rule="evenodd" stroke-opacity="0" stroke="#000000" stroke-width="0" stroke-linecap="square" stroke-linejoin="bevel" d="M0 7.56L2.58 27.12L18.36 39.12L33.72 26.88L36.3 7.38L18.36 0Z" sodipodi:nodetypes="ccccccc"/>
 <path id="shape02" transform="translate(14.7599998539592, 32.3999996794226)" fill="none" stroke="#ffffff" stroke-width="1.2" stroke-linecap="square" stroke-linejoin="bevel" stroke-dasharray="4.8,2.4" d="M15.96 0L0 9.06Z" sodipodi:nodetypes="ccc"/>
 <path id="shape1" transform="translate(30.72, 14.1599998563195)" fill="none" stroke="#ffffff" stroke-width="1.2" stroke-linecap="square" stroke-linejoin="bevel" stroke-dasharray="4.8,2.4" d="M0 18.42L0 0Z" sodipodi:nodetypes="ccc"/>
 <path id="shape2" transform="translate(30.72, 32.5199996746589)" fill="none" stroke="#ffffff" stroke-width="1.2" stroke-linecap="square" stroke-linejoin="bevel" stroke-dasharray="4.8,2.4" d="M0 0L15.48 9Z" sodipodi:nodetypes="ccc"/>
 <path id="shape71" transform="translate(45.1290115613806, 39.1799996123045)" fill="#ffffff" stroke="#ffffff" stroke-width="0.24" stroke-linecap="square" stroke-linejoin="bevel" d="M9.30199 6.76524L5.61595 2.31502L3.75045 0C1.42794 0.914019 -0.197816 1.28487 0.019451 5.81002L9.43684 6.99" sodipodi:nodetypes="ccccc"/>
 <circle id="shape11" transform="translate(29.28, 31.01999999583)" r="1.44" cx="1.44" cy="1.44" fill="#ffffff" fill-rule="evenodd" stroke="#ffffff" stroke-width="0.24" stroke-linecap="square" stroke-linejoin="bevel"/>
 <path id="shape03" transform="translate(17.3737998988828, 24.8793739184186)" fill="#ffffff" stroke-opacity="0" stroke="#000000" stroke-width="0" stroke-linecap="square" stroke-linejoin="bevel" d="M5.91563 18.8419C4.80688 18.8419 3.81656 18.6388 2.94469 18.2325C2.07281 17.8263 1.37875 17.2378 0.8625 16.4672C0.34625 15.6966 0.05875 14.7656 0 13.6744L3.5925 13.6744C3.6775 14.2406 3.88937 14.6803 4.22813 14.9934C4.56687 15.3066 5.0025 15.4631 5.535 15.4631C6.195 15.4631 6.705 15.2791 7.065 14.9109C7.425 14.5428 7.605 14.0244 7.605 13.3556L7.605 12.9244C7.605 12.2219 7.45875 11.6803 7.16625 11.2997C6.87375 10.9191 6.45688 10.7288 5.91563 10.7288L4.35375 10.7288L4.35375 7.37625L5.91563 7.37625C6.35563 7.37625 6.69625 7.20906 6.9375 6.87469C7.17875 6.54031 7.29937 6.07313 7.29937 5.47313L7.29937 5.15438C7.29937 4.58813 7.16625 4.15031 6.9 3.84094C6.63375 3.53156 6.25938 3.37688 5.77688 3.37688C5.30187 3.37688 4.8975 3.55469 4.56375 3.91031C4.23 4.26594 4.00375 4.77 3.885 5.4225L0.30375 5.4225C0.45625 3.70375 1.05312 2.37031 2.09437 1.42219C3.13562 0.474062 4.405 0 5.9025 0C7.53625 0 8.79969 0.416875 9.69281 1.25062C10.5859 2.08437 11.0325 3.2675 11.0325 4.8L11.0325 5.35875C11.0325 6.21375 10.8166 6.95844 10.3847 7.59281C9.95281 8.22719 9.33938 8.70125 8.54438 9.015C9.43313 9.2175 10.1206 9.68281 10.6069 10.4109C11.0931 11.1391 11.3362 12.0656 11.3362 13.1906L11.3362 13.7494C11.3362 15.3669 10.8625 16.62 9.915 17.5088C8.9675 18.3975 7.63438 18.8419 5.91563 18.8419" sodipodi:nodetypes="ccccccccccccccccccccccccccccccccccc"/>
 <path id="shape04" transform="translate(33.6599994034357, 24.920623915726)" fill="#ffffff" stroke-opacity="0" stroke="#000000" stroke-width="0" stroke-linecap="square" stroke-linejoin="bevel" d="M1.75312 18.4594L1.75312 15.1069L4.20375 15.1069C5.34625 15.1069 6.23062 14.83 6.85688 14.2762C7.48312 13.7225 7.79625 12.9462 7.79625 11.9475L7.79625 6.51187C7.79625 5.50562 7.48312 4.7275 6.85688 4.1775C6.23062 3.6275 5.34625 3.3525 4.20375 3.3525L1.75312 3.3525L1.75312 3.55271e-15L4.12687 0C6.44562 0 8.2378 0.5775 9.5034 1.7325C10.7691 2.8875 11.4019 4.515 11.4019 6.615L11.4019 11.8444C11.4019 13.1569 11.1309 14.3103 10.5891 15.3047C10.0472 16.2991 9.2369 17.0734 8.1581 17.6278C7.07937 18.1822 5.73125 18.4594 4.11375 18.4594L1.75312 18.4594M0 18.4594L0 3.55271e-15L3.48 3.55271e-15L3.48 18.4594L0 18.4594" sodipodi:nodetypes="ccccccccccccccccccccccc"/>
 <path id="shape72" transform="matrix(-1 0 0 1 15.8539091208388 39.1990053347039)" fill="#ffffff" stroke="#ffffff" stroke-width="0.24" stroke-linecap="square" stroke-linejoin="bevel" d="M9.30199 6.76524L5.61595 2.31502L3.75045 0C1.42794 0.914019 -0.197816 1.28487 0.019451 5.81002L9.43684 6.99" sodipodi:nodetypes="ccccc"/>
 <path id="shape73" transform="matrix(0.490818118073517 -0.871262058723307 -0.871262058723307 -0.490818118073517 32.1477210328336 16.2294020764918)" fill="#ffffff" stroke="#ffffff" stroke-width="0.24" stroke-linecap="square" stroke-linejoin="bevel" d="M9.19561 7.01521L5.61595 2.31502L3.75045 0C1.42794 0.914019 -0.197816 1.28487 0.019451 5.81002L9.33046 7.23997" sodipodi:nodetypes="ccccc"/>
</svg>
