<?xml version="1.0" standalone="no"?>
<!DOCTYPE svg PUBLIC "-//W3C//DTD SVG 20010904//EN" "http://www.w3.org/TR/2001/REC-SVG-20010904/DTD/svg10.dtd">
<!-- Created using Krita: https://krita.org -->
<svg xmlns="http://www.w3.org/2000/svg" 
    xmlns:xlink="http://www.w3.org/1999/xlink"
    xmlns:krita="http://krita.org/namespaces/svg/krita"
    xmlns:sodipodi="http://sodipodi.sourceforge.net/DTD/sodipodi-0.dtd"
    width="61.44pt"
    height="61.44pt"
    viewBox="0 0 61.44 61.44">
<defs/>
<path id="shape0" transform="matrix(1.18774694089213 0 0 1.18774694089213 3.6750021558862 0.347172013343029)" fill="#283f63" stroke="#ffff" stroke-width="0.8" stroke-linecap="square" stroke-linejoin="bevel" d="M24.75 50.6486C23.31 51.3086 21.99 51.3086 20.79 50.6486C19.59 49.9886 13.26 46.3286 1.8 39.6686C0.66 38.7686 0.09 37.7186 0.09 36.5186C0.09 35.3186 0.06 27.9686 0 14.4686C0.3 13.0286 0.87 12.0386 1.71 11.4986C2.55 10.9586 8.94 7.26857 20.88 0.428571C22.32 -0.171429 23.61 -0.141429 24.75 0.518571C25.89 1.17857 32.25 4.83857 43.83 11.4986C44.91 12.4586 45.45 13.3586 45.45 14.1986C45.45 15.0386 45.48 22.5086 45.54 36.6086C45.36 37.9886 44.7 39.0386 43.56 39.7586C41.85 40.8386 41.85 40.8386 24.75 50.6486Z" sodipodi:nodetypes="czczczczczccc"/>
<path id="shape1" transform="translate(12.1875000519024, 15.8699999233495)" fill="#ffffff" stroke-opacity="0" stroke="#000000" stroke-width="0" stroke-linecap="square" stroke-linejoin="bevel" d="M23.7151 29.7L17.8141 29.7L16.1062 23.0932L7.55686 23.0932L5.86627 29.7L0 29.7L8.74744 0L15.1657 0L23.7151 29.7M14.8662 17.9576L12.2845 7.97403C12.0947 7.22975 11.9454 6.34885 11.7697 5.30379C11.6245 6.45794 11.4776 7.3205 11.3291 7.89145L8.71525 17.9576L14.8662 17.9576M32.1259 29.7L26.7126 29.7L26.7126 0L32.1259 0L32.1259 29.7" sodipodi:nodetypes="cccccccccccccccccccc"/><path id="shape01" transform="matrix(0 1 1 0 39.193250225344 46.6517489568746)" fill="none" stroke="#ffffff" stroke-width="1.2" stroke-linecap="square" stroke-linejoin="miter" stroke-miterlimit="2" d="M0 1.47C2.91 1.47 1.5 1.47 4.41 1.47M7.7665 1.47C7.7665 0.6581 7.0957 0 6.2683 0C5.4408 0 4.77 0.6581 4.77 1.47C4.77 2.2819 5.4408 2.94 6.2683 2.94C7.0957 2.94 7.7665 2.2819 7.7665 1.47" sodipodi:nodetypes="ccccccc"/>
<path id="shape02" transform="translate(45.7199995475873, 29.25)" fill="none" stroke="#ffffff" stroke-width="1.2" stroke-linecap="square" stroke-linejoin="miter" stroke-miterlimit="2" d="M0 1.47C2.56234 1.47 5.08565 1.47 7.64799 1.47M10.6465 1.47C10.6465 0.658141 10.0558 0 9.32729 0C8.59865 0 8.00799 0.658141 8.00799 1.47C8.00799 2.28186 8.59865 2.94 9.32729 2.94C10.0558 2.94 10.6465 2.28186 10.6465 1.47" sodipodi:nodetypes="ccccccc"/>
<path id="shape03" transform="translate(45.7499999774387, 21.7800000988501)" fill="none" stroke="#ffffff" stroke-width="1.2" stroke-linecap="square" stroke-linejoin="miter" stroke-miterlimit="2" d="M0 1.47C2.91 1.47 1.5 1.47 4.41 1.47M7.7665 1.47C7.7665 0.6581 7.0957 0 6.2683 0C5.4408 0 4.77 0.6581 4.77 1.47C4.77 2.2819 5.4408 2.94 6.2683 2.94C7.0957 2.94 7.7665 2.2819 7.7665 1.47" sodipodi:nodetypes="ccccccc"/>
<path id="shape04" transform="translate(45.8999998311152, 36.5849995381316)" fill="none" stroke="#ffffff" stroke-width="1.2" stroke-linecap="square" stroke-linejoin="miter" stroke-miterlimit="2" d="M0 1.47C2.91 1.47 1.5 1.47 4.41 1.47M7.7665 1.47C7.7665 0.6581 7.0957 0 6.2683 0C5.4408 0 4.77 0.6581 4.77 1.47C4.77 2.2819 5.4408 2.94 6.2683 2.94C7.0957 2.94 7.7665 2.2819 7.7665 1.47" sodipodi:nodetypes="ccccccc"/>
<path id="shape05" transform="matrix(-1 0 0 1 14.8165398320405 29.2500001232497)" fill="none" stroke="#ffffff" stroke-width="1.2" stroke-linecap="square" stroke-linejoin="miter" stroke-miterlimit="2" d="M0 1.47C2.91 1.47 4.02 1.47 6.93 1.47M9.9265 1.47C9.9265 0.658141 9.2557 0 8.4283 0C7.6008 0 6.93 0.658141 6.93 1.47C6.93 2.28186 7.6008 2.94 8.4283 2.94C9.2557 2.94 9.9265 2.28186 9.9265 1.47" sodipodi:nodetypes="ccccccc"/>
<path id="shape06" transform="matrix(-1 0 0 1 17.3065381139915 21.7800000988501)" fill="none" stroke="#ffffff" stroke-width="1.2" stroke-linecap="square" stroke-linejoin="miter" stroke-miterlimit="2" d="M0 1.47C2.91 1.47 1.5 1.47 4.41 1.47M7.7665 1.47C7.7665 0.6581 7.0957 0 6.2683 0C5.4408 0 4.77 0.6581 4.77 1.47C4.77 2.2819 5.4408 2.94 6.2683 2.94C7.0957 2.94 7.7665 2.2819 7.7665 1.47" sodipodi:nodetypes="ccccccc"/>
<path id="shape07" transform="matrix(-1 0 0 1 13.1665382520313 36.5849995381316)" fill="none" stroke="#ffffff" stroke-width="1.2" stroke-linecap="square" stroke-linejoin="miter" stroke-miterlimit="2" d="M0 1.47C2.91 1.47 1.5 1.47 4.41 1.47M7.7665 1.47C7.7665 0.6581 7.0957 0 6.2683 0C5.4408 0 4.77 0.6581 4.77 1.47C4.77 2.2819 5.4408 2.94 6.2683 2.94C7.0957 2.94 7.7665 2.2819 7.7665 1.47" sodipodi:nodetypes="ccccccc"/>
</svg>
