<?xml version="1.0" standalone="no"?>
<!DOCTYPE svg PUBLIC "-//W3C//DTD SVG 20010904//EN" "http://www.w3.org/TR/2001/REC-SVG-20010904/DTD/svg10.dtd">
<!-- Created using Krita: https://krita.org -->
<svg xmlns="http://www.w3.org/2000/svg" 
    xmlns:xlink="http://www.w3.org/1999/xlink"
    xmlns:krita="http://krita.org/namespaces/svg/krita"
    xmlns:sodipodi="http://sodipodi.sourceforge.net/DTD/sodipodi-0.dtd"
    width="61.44pt"
    height="61.44pt"
    viewBox="0 0 61.44 61.44">
<defs/>
<path id="shape0" transform="matrix(1.18774694089213 0 0 1.18774694089213 3.6750021558862 0.347169977205412)" fill="#66111E" stroke="#ffff" stroke-width="0.8" stroke-linecap="square" stroke-linejoin="bevel" d="M24.75 50.6486C23.31 51.3086 21.99 51.3086 20.79 50.6486C19.59 49.9886 13.26 46.3286 1.8 39.6686C0.66 38.7686 0.09 37.7186 0.09 36.5186C0.09 35.3186 0.06 27.9686 0 14.4686C0.3 13.0286 0.87 12.0386 1.71 11.4986C2.55 10.9586 8.94 7.26857 20.88 0.428571C22.32 -0.171429 23.61 -0.141429 24.75 0.518571C25.89 1.17857 32.25 4.83857 43.83 11.4986C44.91 12.4586 45.45 13.3586 45.45 14.1986C45.45 15.0386 45.48 22.5086 45.54 36.6086C45.36 37.9886 44.7 39.0386 43.56 39.7586C41.85 40.8386 41.85 40.8386 24.75 50.6486Z" sodipodi:nodetypes="czczczczczccc"/><g id="group0" transform="matrix(0.065585217239356 0 0 0.065585217239356 -3.09733386029241 -5.95533900926367)" fill="none">
 </g><path id="shape01" transform="matrix(1.09308695398927 0 0 1.09308695398927 12.6202771866723 41.3428614266454)" fill="#a78086" fill-rule="evenodd" stroke="#ffffff" stroke-width="0.24" stroke-linecap="square" stroke-linejoin="miter" stroke-miterlimit="2" d="M33.2167 0.0797L33.2153 0.0472L33.214 0.023L33.2128 0.0073L33.2115 0L33.2103 0.0011L33.2092 0.0106L33.2081 0.0284L33.207 0.0547L33.2063 0.0796L33.2167 0.0797M33.2063 0.0796L33.206 0.0894L33.205 0.1325L33.2041 0.184L33.2031 0.244L33.2023 0.3123L33.2015 0.389L33.2007 0.4741L33.1999 0.5676L33.1992 0.6696L33.1985 0.7799L33.1979 0.8986L33.1973 1.0258L33.1968 1.1613L33.1963 1.3053L33.1958 1.4576L33.1954 1.6184L33.195 1.7876L33.1947 1.9651L33.1944 2.1511L33.1941 2.3455L33.1939 2.5483L33.1937 2.7594L33.1936 2.979L33.1935 3.207L33.1934 3.4434L33.1934 3.6882L33.1878 3.8892L33.1711 4.0889L33.1435 4.2872L33.105 4.4842L33.0558 4.6796L32.9961 4.8736L32.926 5.0659L32.8456 5.2567L32.7551 5.4456L32.6545 5.6329L32.5441 5.8182L32.424 6.0017L32.2942 6.1832L32.1551 6.3627L32.0065 6.54L31.8489 6.7152L31.6821 6.8882L31.5065 7.0589L31.3221 7.2273L31.129 7.3932L30.9275 7.5567L30.7175 7.7176L30.4994 7.876L30.2732 8.0316L30.039 8.1846L29.797 8.3347L29.5473 8.482L29.2901 8.6264L29.0254 8.7678L28.7535 8.9062L28.4745 9.0415L28.1884 9.1736L27.8956 9.3024L27.5959 9.428L27.2897 9.5502L26.9771 9.669L26.6581 9.7843L26.333 9.8961L26.0018 10.0042L25.6647 10.1087L25.3218 10.2094L24.9734 10.3064L24.6194 10.3995L24.2601 10.4886L23.8955 10.5738L23.5259 10.6549L23.1513 10.7319L22.7719 10.8047L22.3878 10.8733L21.9992 10.9376L21.6062 10.9975L21.2089 11.053L20.8076 11.104L20.4022 11.1504L19.9929 11.1922L19.58 11.2294L19.1634 11.2617L18.7435 11.2893L18.3202 11.312L17.8937 11.3298L17.4642 11.3425L17.0318 11.3503L16.5967 11.3528L16.1616 11.3503L15.7292 11.3425L15.2997 11.3298L14.8732 11.312L14.4499 11.2893L14.03 11.2617L13.6134 11.2294L13.2005 11.1922L12.7912 11.1504L12.3858 11.104L11.9845 11.053L11.5872 10.9975L11.1942 10.9376L10.8056 10.8733L10.4215 10.8047L10.0421 10.7319L9.6675 10.6549L9.2979 10.5738L8.9333 10.4886L8.574 10.3995L8.22 10.3064L7.8716 10.2094L7.5287 10.1087L7.1916 10.0042L6.8604 9.8961L6.5353 9.7843L6.2163 9.669L5.9037 9.5502L5.5975 9.428L5.2978 9.3024L5.005 9.1736L4.7189 9.0415L4.4399 8.9062L4.168 8.7678L3.9033 8.6264L3.6461 8.482L3.3964 8.3347L3.1544 8.1846L2.9202 8.0316L2.694 7.876L2.4759 7.7176L2.2659 7.5567L2.0644 7.3932L1.8713 7.2273L1.6869 7.0589L1.5113 6.8882L1.3445 6.7152L1.1869 6.54L1.0383 6.3627L0.8992 6.1832L0.7694 6.0017L0.6493 5.8182L0.5389 5.6329L0.4383 5.4456L0.3478 5.2567L0.2674 5.0659L0.1973 4.8736L0.1376 4.6796L0.0884 4.4842L0.0499 4.2872L0.0223 4.0889L0.0056 3.8892L0 3.6882L0 3.4433L0.0001 3.2064L0.0003 2.9776L0.0005 2.7569L0.0008 2.5443L0.0012 2.3397L0.0016 2.1433L0.002 1.9549L0.0026 1.7747L0.0032 1.6025L0.0039 1.4384L0.0046 1.2824L0.0054 1.1344L0.0062 0.9946L0.0072 0.8628L0.0081 0.7391L0.0092 0.6235L0.0103 0.516L0.0115 0.4166L0.0127 0.3253L0.0137 0.2645L0.0223 0.3678L0.0499 0.5662L0.0884 0.7631L0.1376 0.9586L0.1973 1.1526L0.2674 1.3449L0.3478 1.5356L0.4383 1.7246L0.5389 1.9118L0.6493 2.0972L0.7694 2.2807L0.8992 2.4622L1.0383 2.6416L1.1869 2.819L1.3445 2.9942L1.5113 3.1672L1.6869 3.3379L1.8713 3.5063L2.0644 3.6722L2.2659 3.8357L2.4759 3.9966L2.694 4.155L2.9202 4.3106L3.1544 4.4636L3.3964 4.6137L3.6461 4.761L3.9033 4.9054L4.168 5.0468L4.4399 5.1852L4.7189 5.3205L5.005 5.4526L5.2978 5.5814L5.5975 5.707L5.9037 5.8292L6.2163 5.948L6.5353 6.0633L6.8604 6.1751L7.1916 6.2832L7.5287 6.3877L7.8716 6.4884L8.22 6.5854L8.574 6.6785L8.9333 6.7676L9.2979 6.8528L9.6675 6.9339L10.0421 7.0109L10.4215 7.0837L10.8056 7.1523L11.1942 7.2166L11.5872 7.2765L11.9845 7.332L12.3858 7.383L12.7912 7.4294L13.2005 7.4712L13.6134 7.5083L14.03 7.5407L14.4499 7.5683L14.8732 7.591L15.2997 7.6088L15.7292 7.6215L16.1616 7.6292L16.5967 7.6318L17.0318 7.6292L17.4642 7.6215L17.8937 7.6088L18.3202 7.591L18.7435 7.5683L19.1634 7.5407L19.58 7.5083L19.9929 7.4712L20.4022 7.4294L20.8076 7.383L21.2089 7.332L21.6062 7.2765L21.9992 7.2166L22.3878 7.1523L22.7719 7.0837L23.1513 7.0109L23.5259 6.9339L23.8955 6.8528L24.2601 6.7676L24.6194 6.6785L24.9734 6.5854L25.3218 6.4884L25.6647 6.3877L26.0018 6.2832L26.333 6.1751L26.6581 6.0633L26.9771 5.948L27.2897 5.8292L27.5959 5.707L27.8956 5.5814L28.1884 5.4526L28.4745 5.3205L28.7535 5.1852L29.0254 5.0468L29.2901 4.9054L29.5473 4.761L29.797 4.6137L30.039 4.4636L30.2732 4.3106L30.4994 4.155L30.7175 3.9966L30.9275 3.8357L31.129 3.6722L31.3221 3.5063L31.5065 3.3379L31.6821 3.1672L31.8489 2.9942L32.0065 2.819L32.1551 2.6416L32.2942 2.4622L32.424 2.2807L32.5441 2.0972L32.6545 1.9118L32.7551 1.7246L32.8456 1.5356L32.926 1.3449L32.9961 1.1526L33.0558 0.9586L33.105 0.7631L33.1435 0.5662L33.1711 0.3678L33.1878 0.1682L33.1903 0.0796L33.2063 0.0796" sodipodi:nodetypes="ccccccccccccccccccccccccccccccccccccccccccccccccccccccccccccccccccccccccccccccccccccccccccccccccccccccccccccccccccccccccccccccccccccccccccccccccccccccccccccccccccccccccccccccccccccccccccccccccccccccccccccccccccccccccccccccccccccccccccccccccccccccccccccccccccccccccccccccccccccccccccccccccccccccccccccccccccccccc"/>
 <ellipse id="shape011" transform="matrix(1.09308695398927 0 0 1.09308695398927 12.62029287669 32.928926751481)" rx="16.5966856461395" ry="7.66461383735342" cx="16.5966856461395" cy="7.66461383735342" fill="#a78086" stroke="#ffffff" stroke-width="0.24" stroke-linecap="square" stroke-linejoin="bevel"/>
 <circle id="shape02" transform="matrix(1.09308695398927 0 0 1.09308695398927 11.2466570593009 5.84999959342539)" r="17.853343053289" cx="17.853343053289" cy="17.853343053289" fill="#a78086" stroke="#ffffff" stroke-width="0.24" stroke-linecap="square" stroke-linejoin="bevel"/>
 <path id="shape03" transform="matrix(1.09308695398927 0 0 1.09308695398927 11.8749491479807 9.98186862285676)" fill="#825b7e" fill-rule="evenodd" stroke-opacity="0" stroke="#000000" stroke-width="0" stroke-linecap="square" stroke-linejoin="bevel" d="M6.77856 0C7.05856 17.06 14.1486 26.37 28.0486 27.93C19.2686 33.53 10.9986 32.39 3.23856 24.51C-1.93144 15.24 -0.911444 7.2 6.29856 0.39Z" sodipodi:nodetypes="ccccc"/>
 <circle id="shape1" transform="matrix(1.09308695398927 0 0 1.09308695398927 33.516492559999 10.9328544405778)" r="5.82" cx="5.82" cy="5.82" fill="#c9a7ac" fill-rule="evenodd" stroke-opacity="0" stroke="#000000" stroke-width="0" stroke-linecap="square" stroke-linejoin="bevel"/>
 <path id="shape2" transform="matrix(1.09308695398927 0 0 1.09308695398927 13.1005706274346 37.8719806405919)" fill="#765a73" fill-rule="evenodd" stroke="#ffffff" stroke-width="0.24" stroke-linecap="square" stroke-linejoin="bevel" d="M2.49231 0C0.692308 1.11 -0.132692 2.73 0.0173076 4.86C0.167308 6.99 0.197308 8.2775 0.107308 8.7225C0.162382 8.85607 0.244385 8.99948 0.353319 9.15274C2.58436 12.2916 7.85236 14.0857 16.1573 14.535L16.1573 10.695L26.7773 2.895C26.3305 3.18158 26.0275 3.39022 25.8684 3.52094C22.7492 6.08414 10.3971 9.1974 2.93481 0.427501C2.85753 0.336678 2.71003 0.194177 2.49231 0Z" sodipodi:nodetypes="cccscccssc"/>
 <path id="shape04" transform="matrix(1.09308695398927 0 0 1.09308695398927 12.0301606539759 19.3564832161747)" fill="#ffffff" stroke-opacity="0" stroke="#000000" stroke-width="0" stroke-linecap="square" stroke-linejoin="bevel" d="M9.27937 9.97498C8.25437 10.5662 6.97999 10.8619 5.45625 10.8619C3.7675 10.8619 2.43593 10.3944 1.46156 9.45935C0.487185 8.52435 0 7.23622 0 5.59498C0 3.94498 0.532185 2.59997 1.59657 1.55998C2.66093 0.52 4.07688 0 5.84438 0C6.95812 0 7.94001 0.1537 8.79001 0.4612L8.79001 2.67935C7.97875 2.2106 6.9875 1.97623 5.81625 1.97623C4.83374 1.97623 4.03376 2.29498 3.41624 2.93248C2.79875 3.56998 2.48999 4.4206 2.48999 5.48435C2.48999 6.56435 2.76719 7.39966 3.32157 7.99029C3.87594 8.58091 4.62437 8.87623 5.56687 8.87623C6.13312 8.87623 6.58249 8.7956 6.915 8.63435L6.915 6.5831L4.81124 6.5831L4.81124 4.69498L9.27937 4.69498L9.27937 9.97498M17.58 10.6781L11.325 10.6781L11.325 0.1743L13.6893 0.1743L13.6893 8.75998L17.58 8.75998L17.58 10.6781M18.51 10.275L18.51 7.93123C18.935 8.28747 19.3965 8.55466 19.8947 8.73279C20.3928 8.91091 20.8956 8.99998 21.4031 8.99998C21.7006 8.99998 21.9606 8.97341 22.1831 8.92029C22.4056 8.86716 22.5912 8.79279 22.74 8.69716C22.8887 8.60154 22.9997 8.48904 23.0728 8.35966C23.1459 8.23029 23.1825 8.08998 23.1825 7.93873C23.1825 7.73373 23.124 7.5506 23.0072 7.38935C22.8903 7.2281 22.7303 7.07904 22.5272 6.94216C22.324 6.80529 22.0834 6.67341 21.8053 6.54654C21.5272 6.41966 21.2268 6.2906 20.9043 6.15935C20.0843 5.81685 19.4728 5.39904 19.0697 4.90591C18.6665 4.41279 18.465 3.81748 18.465 3.11998C18.465 2.57248 18.575 2.10216 18.795 1.70904C19.015 1.31591 19.314 0.99248 19.6922 0.73872C20.0703 0.485 20.5084 0.2984 21.0065 0.179C21.5047 0.0597 22.0325 0 22.59 0C23.1362 0 23.6206 0.0328 24.0431 0.0984C24.4656 0.164 24.855 0.2656 25.2112 0.4031L25.2112 2.59123C25.035 2.46997 24.8431 2.36279 24.6356 2.26966C24.4281 2.17654 24.2147 2.09966 23.9953 2.03904C23.7759 1.97841 23.5575 1.93341 23.34 1.90404C23.1225 1.87466 22.9162 1.85997 22.7212 1.85997C22.4525 1.85997 22.2084 1.8856 21.989 1.93685C21.7697 1.9881 21.584 2.05998 21.4322 2.15248C21.2803 2.24497 21.1631 2.35591 21.0806 2.48529C20.9981 2.61466 20.9568 2.75998 20.9568 2.92123C20.9568 3.09748 21.0031 3.25529 21.0956 3.39466C21.1881 3.53404 21.3197 3.66591 21.4903 3.79029C21.6609 3.91466 21.8684 4.03654 22.1128 4.15591C22.3572 4.27529 22.6331 4.39873 22.9406 4.52623C23.3606 4.70123 23.7378 4.88779 24.0722 5.08591C24.4065 5.28404 24.6934 5.50748 24.9328 5.75622C25.1722 6.00498 25.3553 6.28935 25.4822 6.60935C25.609 6.92935 25.6725 7.30185 25.6725 7.72685C25.6725 8.3131 25.5615 8.80498 25.3397 9.20248C25.1178 9.59997 24.8162 9.92216 24.435 10.169C24.0537 10.4159 23.6106 10.5931 23.1056 10.7006C22.6006 10.8081 22.0668 10.8619 21.5043 10.8619C20.9293 10.8619 20.3818 10.8128 19.8618 10.7147C19.3418 10.6165 18.8912 10.47 18.51 10.275M33.6562 10.6781L27.4012 10.6781L27.4012 0.1743L29.7656 0.1743L29.7656 8.75998L33.6562 8.75998L33.6562 10.6781" sodipodi:nodetypes="cccccccccccccccccccccccccccccccccccccccccccccccccccccccccccccccccccccccccccc"/>
</svg>
