<?xml version="1.0" standalone="no"?>
<!DOCTYPE svg PUBLIC "-//W3C//DTD SVG 20010904//EN" "http://www.w3.org/TR/2001/REC-SVG-20010904/DTD/svg10.dtd">
<!-- Created using Krita: https://krita.org -->
<svg xmlns="http://www.w3.org/2000/svg" 
    xmlns:xlink="http://www.w3.org/1999/xlink"
    xmlns:krita="http://krita.org/namespaces/svg/krita"
    xmlns:sodipodi="http://sodipodi.sourceforge.net/DTD/sodipodi-0.dtd"
    width="61.44pt"
    height="61.44pt"
    viewBox="0 0 61.44 61.44">
<defs/>
<path id="shape0" transform="matrix(1.18774694089213 0 0 1.18774694089213 3.6750021558862 0.347168450102203)" fill="#e6f1d9" stroke="#ffff" stroke-width="0.8" stroke-linecap="square" stroke-linejoin="bevel" d="M24.75 50.6486C23.31 51.3086 21.99 51.3086 20.79 50.6486C19.59 49.9886 13.26 46.3286 1.8 39.6686C0.66 38.7686 0.09 37.7186 0.09 36.5186C0.09 35.3186 0.06 27.9686 0 14.4686C0.3 13.0286 0.87 12.0386 1.71 11.4986C2.55 10.9586 8.94 7.26857 20.88 0.428571C22.32 -0.171429 23.61 -0.141429 24.75 0.518571C25.89 1.17857 32.25 4.83857 43.83 11.4986C44.91 12.4586 45.45 13.3586 45.45 14.1986C45.45 15.0386 45.48 22.5086 45.54 36.6086C45.36 37.9886 44.7 39.0386 43.56 39.7586C41.85 40.8386 41.85 40.8386 24.75 50.6486Z" sodipodi:nodetypes="czczczczczccc"/><path id="shape0_2ef3ec68" transform="matrix(0.117075657421049 0 0 0.117075657421049 24.7349230719896 36.775283397373)" fill="#689f63" stroke-opacity="0" stroke="#000000" stroke-width="0" stroke-linecap="square" stroke-linejoin="bevel" d="M48.374 109.024C46.914 109.024 45.464 108.641 44.184 107.904L30.847 100.008C28.855 98.8935 29.827 98.4995 30.484 98.2725C33.14 97.3425 33.679 97.1325 36.514 95.5225C36.812 95.3525 37.202 95.4125 37.507 95.5925L47.753 101.673C48.123 101.873 48.648 101.873 48.991 101.673L88.941 78.6125C89.311 78.4025 89.551 77.9725 89.551 77.5325L89.551 31.4325C89.551 30.9725 89.311 30.5625 88.933 30.3325L48.999 7.2925C48.629 7.0725 48.139 7.0725 47.769 7.2925L7.843 30.3325C7.456 30.5525 7.21 30.9825 7.21 31.4225L7.21 77.5225C7.21 77.9625 7.45 78.3825 7.83 78.5925L18.77 84.9125C24.71 87.8825 28.34 84.3825 28.34 80.8625L28.34 35.3625C28.34 34.7125 28.85 34.2125 29.5 34.2125L34.56 34.2125C35.19 34.2125 35.71 34.7125 35.71 35.3625L35.71 80.8825C35.71 88.8025 31.39 93.3525 23.88 93.3525C21.57 93.3525 19.75 93.3525 14.67 90.8525L4.19 84.8125C1.6 83.3125 0 80.5125 0 77.5225L0 31.4225C0 28.4225 1.6 25.6225 4.19 24.1425L44.18 1.0725C46.71 -0.3575 50.07 -0.3575 52.58 1.0725L92.52 24.1525C95.1 25.6425 96.71 28.4325 96.71 31.4325L96.71 77.5325C96.71 80.5225 95.1 83.3125 92.52 84.8125L52.58 107.883C51.3 108.623 49.85 109.003 48.37 109.003" sodipodi:nodetypes="ccccccccccccccccccccccccccccccccccccccc"/><path id="shape1" transform="matrix(0.117075657421049 0 0 0.117075657421049 29.3674897604831 39.2636679580288)" fill="#689f63" stroke-opacity="0" stroke="#000000" stroke-width="0" stroke-linecap="square" stroke-linejoin="bevel" d="M21.145 56.003C3.665 56.003 0 47.979 0 41.249C0 40.609 0.516 40.099 1.157 40.099L6.317 40.099C6.887 40.099 7.367 40.514 7.457 41.077C8.237 46.335 10.557 48.987 21.127 48.987C29.547 48.987 33.127 47.085 33.127 42.62C33.127 40.05 32.107 38.14 19.027 36.86C8.087 35.78 1.327 33.37 1.327 24.62C1.327 16.56 8.127 11.76 19.517 11.76C32.307 11.76 38.647 16.2 39.447 25.74C39.477 26.07 39.357 26.39 39.137 26.63C38.917 26.86 38.607 27 38.287 27L33.097 27C32.557 27 32.087 26.62 31.977 26.1C30.727 20.57 27.707 18.8 19.497 18.8C10.307 18.8 9.237 22 9.237 24.4C9.237 27.31 10.497 28.16 22.897 29.8C35.177 31.43 41.007 33.73 41.007 42.36C41.007 51.06 33.747 56.05 21.087 56.05M69.747 7.16L71.087 7.16C72.187 7.16 72.397 6.39 72.397 5.94C72.397 4.76 71.587 4.76 71.137 4.76L69.757 4.76ZM68.117 3.38L71.087 3.38C72.107 3.38 74.107 3.38 74.107 5.66C74.107 7.25 73.087 7.58 72.477 7.78C73.667 7.86 73.747 8.64 73.907 9.74C73.987 10.43 74.117 11.62 74.357 12.02L72.527 12.02C72.477 11.62 72.197 9.42 72.197 9.3C72.077 8.81 71.907 8.57 71.297 8.57L69.787 8.57L69.787 12.03L68.117 12.03ZM64.547 7.68C64.547 11.26 67.437 14.16 70.987 14.16C74.567 14.16 77.457 11.2 77.457 7.68C77.457 4.09 74.527 1.24 70.977 1.24C67.477 1.24 64.537 4.05 64.537 7.67M78.697 7.7C78.697 11.94 75.227 15.4 70.997 15.4C66.797 15.4 63.297 11.98 63.297 7.7C63.297 3.34 66.877 0 70.997 0C75.147 0 78.687 3.35 78.687 7.7" sodipodi:nodetypes="ccccccccccccccccccccccccccccccccccccccccccccccccc"/><path id="shape2" transform="matrix(0.117075657421049 0 0 0.117075657421049 4.80009965593534 17.8199988506057)" fill="#333333" fill-rule="evenodd" stroke-opacity="0" stroke="#000000" stroke-width="0" stroke-linecap="square" stroke-linejoin="bevel" d="M94.936 90.5498C94.936 88.7098 93.966 87.0198 92.378 86.1048L50.022 61.7348C49.307 61.3148 48.506 61.0948 47.694 61.0648L47.256 61.0648C46.444 61.0948 45.643 61.3148 44.916 61.7348L2.562 86.1048C0.984 87.0248 0 88.7148 0 90.5548L0.093 156.195C0.093 157.105 0.563 157.955 1.363 158.405C2.143 158.885 3.123 158.885 3.903 158.405L29.083 143.985C30.673 143.039 31.643 141.367 31.643 139.545L31.643 108.88C31.643 107.05 32.613 105.36 34.198 104.45L44.918 98.2758C45.714 97.8158 46.588 97.5878 47.478 97.5878C48.354 97.5878 49.248 97.8138 50.022 98.2748L60.737 104.447C62.323 105.357 63.297 107.047 63.297 108.877L63.297 139.54C63.297 141.36 64.28 143.04 65.862 143.98L91.026 158.39C91.816 158.86 92.799 158.86 93.586 158.39C94.362 157.94 94.854 157.09 94.854 156.18ZM294.804 124.726C294.804 125.183 294.561 125.606 294.164 125.832L279.616 134.218C279.221 134.445 278.733 134.445 278.339 134.218L263.789 125.832C263.389 125.605 263.149 125.182 263.149 124.726L263.149 107.93C263.149 107.472 263.389 107.05 263.779 106.82L278.319 98.4198C278.719 98.1898 279.209 98.1898 279.609 98.4198L294.159 106.82C294.559 107.05 294.799 107.472 294.799 107.93ZM298.734 0.323784C297.94 -0.118216 296.974 -0.106216 296.19 0.350784C295.41 0.810784 294.928 1.65078 294.928 2.56078L294.928 67.5608C294.928 68.2008 294.588 68.7908 294.034 69.1108C293.484 69.4308 292.799 69.4308 292.244 69.1108L281.634 62.9998C280.054 62.0858 278.108 62.0858 276.522 62.9998L234.152 87.4528C232.569 88.3628 231.592 90.0528 231.592 91.8728L231.592 140.793C231.592 142.623 232.569 144.303 234.152 145.223L276.522 169.693C278.104 170.603 280.052 170.603 281.639 169.693L324.009 145.213C325.589 144.293 326.569 142.613 326.569 140.783L326.569 18.8628C326.569 17.0068 325.559 15.2998 323.939 14.3928ZM439.827 107.488C441.401 106.574 442.37 104.886 442.37 103.066L442.37 91.2098C442.37 89.3858 441.4 87.7028 439.823 86.7848L397.723 62.3448C396.133 61.4248 394.183 61.4248 392.593 62.3448L350.233 86.7948C348.643 87.7148 347.673 89.3948 347.673 91.2248L347.673 140.125C347.673 141.965 348.663 143.665 350.253 144.575L392.343 168.565C393.893 169.455 395.793 169.465 397.363 168.595L422.823 154.445C423.623 153.995 424.133 153.145 424.133 152.225C424.133 151.305 423.643 150.445 422.843 149.995L380.223 125.535C379.423 125.085 378.933 124.235 378.933 123.325L378.933 107.985C378.933 107.069 379.413 106.225 380.213 105.769L393.473 98.1188C394.263 97.6588 395.233 97.6588 396.023 98.1188L409.293 105.769C410.083 106.219 410.573 107.069 410.573 107.979L410.573 120.039C410.573 120.949 411.063 121.799 411.853 122.259C412.643 122.709 413.623 122.709 414.413 122.249ZM439.827 107.488" sodipodi:nodetypes="cccccccccccccccccccccccccccccccccccccccccccccccccccccccccccccccccccccccccccccccccccccc"/><path id="shape3" transform="matrix(0.117075657421049 0 0 0.117075657421049 49.9811178382647 30.1207908363037)" fill="#689f63" fill-rule="evenodd" stroke-opacity="0" stroke="#000000" stroke-width="0" stroke-linecap="square" stroke-linejoin="bevel" d="M8.625 0.13275C8.925 -0.04425 9.301 -0.04425 9.605 0.13275L17.735 4.82275C18.039 4.99875 18.225 5.32275 18.225 5.67275L18.225 15.0627C18.225 15.4127 18.039 15.7368 17.735 15.9127L9.605 20.6027C9.301 20.7797 8.925 20.7797 8.625 20.6027L0.5 15.9127C0.19 15.7367 0 15.4127 0 15.0627L0 5.67275C0 5.32275 0.18 4.99875 0.49 4.82275ZM8.625 0.13275" sodipodi:nodetypes="cccccccccccccc"/><path id="shape4" transform="translate(18.3824998619716, 24.9974998123017)" fill="#689f63" fill-rule="evenodd" stroke="none" stroke-width="0.24" stroke-linecap="square" stroke-linejoin="bevel" d="M5.58 0L0 3.0825L0 9.585L5.535 12.7575L11.16 9.495L11.07 3.15Z" sodipodi:nodetypes="ccccccc"/>
</svg>
