<?xml version="1.0" standalone="no"?>
<!DOCTYPE svg PUBLIC "-//W3C//DTD SVG 20010904//EN" "http://www.w3.org/TR/2001/REC-SVG-20010904/DTD/svg10.dtd">
<!-- Created using Krita: https://krita.org -->
<svg xmlns="http://www.w3.org/2000/svg" 
    xmlns:xlink="http://www.w3.org/1999/xlink"
    xmlns:krita="http://krita.org/namespaces/svg/krita"
    xmlns:sodipodi="http://sodipodi.sourceforge.net/DTD/sodipodi-0.dtd"
    width="61.44pt"
    height="61.44pt"
    viewBox="0 0 61.44 61.44">
<defs/>
<path id="shape0" transform="matrix(1.18774694089213 0 0 1.18774694089213 3.6750021558862 0.347171504308621)" fill="#66111E" stroke="#ffff" stroke-width="0.8" stroke-linecap="square" stroke-linejoin="bevel" d="M24.75 50.6486C23.31 51.3086 21.99 51.3086 20.79 50.6486C19.59 49.9886 13.26 46.3286 1.8 39.6686C0.66 38.7686 0.09 37.7186 0.09 36.5186C0.09 35.3186 0.06 27.9686 0 14.4686C0.3 13.0286 0.87 12.0386 1.71 11.4986C2.55 10.9586 8.94 7.26857 20.88 0.428571C22.32 -0.171429 23.61 -0.141429 24.75 0.518571C25.89 1.17857 32.25 4.83857 43.83 11.4986C44.91 12.4586 45.45 13.3586 45.45 14.1986C45.45 15.0386 45.48 22.5086 45.54 36.6086C45.36 37.9886 44.7 39.0386 43.56 39.7586C41.85 40.8386 41.85 40.8386 24.75 50.6486Z" sodipodi:nodetypes="czczczczczccc"/>
<path id="shape01" transform="matrix(0.0496296279900689 0 0 0.0496296279900689 11.0120630436118 26.1355877158613)" fill="#ffffff" stroke-opacity="0" stroke="#000000" stroke-width="0" stroke-linecap="square" stroke-linejoin="bevel" d="M5.776 61.082C9.627 49.313 15.409 38.89 23.11 29.822C30.811 20.755 40.4 13.513 51.863 8.111C63.327 2.707 76.677 0 91.909 0C107.135 0 120.486 2.708 131.949 8.111C143.412 13.513 153.001 20.755 160.702 29.822C168.403 38.889 174.185 49.313 178.035 61.082C181.886 72.85 183.817 85.1 183.817 97.831C183.817 110.562 181.886 122.817 178.035 134.585C174.185 146.354 168.403 156.777 160.702 165.846C153.001 174.912 143.412 182.11 131.949 187.427C120.486 192.738 107.135 195.403 91.909 195.403C76.678 195.403 63.327 192.739 51.863 187.427C40.4 182.11 30.811 174.912 23.11 165.846C15.409 156.778 9.627 146.354 5.776 134.585C1.925 122.817 0 110.562 0 97.831C0 85.1 1.926 72.85 5.776 61.082ZM29.214 125.784C31.727 134.949 35.673 143.196 41.056 150.525C46.435 157.857 53.34 163.748 61.774 168.202C70.201 172.654 80.244 174.875 91.909 174.875C103.569 174.875 113.611 172.654 122.045 168.202C130.472 163.748 137.378 157.857 142.762 150.525C148.14 143.196 152.085 134.949 154.597 125.784C157.109 116.618 158.366 107.323 158.366 97.898C158.366 88.473 157.109 79.185 154.597 70.019C152.085 60.853 148.139 52.607 142.762 45.272C137.377 37.944 130.472 32.054 122.045 27.601C113.611 23.148 103.568 20.921 91.909 20.921C80.244 20.921 70.202 23.148 61.774 27.601C53.34 32.055 46.435 37.945 41.056 45.272C35.672 52.607 31.727 60.853 29.214 70.019C26.702 79.184 25.452 88.473 25.452 97.898C25.452 107.323 26.702 116.618 29.214 125.784Z" sodipodi:nodetypes="cccccccccccccccccccccccccccccccccc"/>
<path id="shape1" transform="matrix(0.0496296279900689 0 0 0.0496296279900689 21.0112419725389 29.5836557500993)" fill="#ffffff" stroke-opacity="0" stroke="#000000" stroke-width="0" stroke-linecap="square" stroke-linejoin="bevel" d="M20.201 2.77L20.201 18.905L20.605 18.905C23.901 12.299 29.083 7.494 36.153 4.496C43.223 1.499 50.993 0 59.477 0C68.896 0 77.102 1.69 84.095 5.07C91.083 8.45 96.89 13.015 101.524 18.769C106.157 24.53 109.648 31.167 112.009 38.687C114.364 46.21 115.544 54.193 115.544 62.636C115.544 71.08 114.401 79.062 112.128 86.587C109.849 94.11 106.397 100.674 101.763 106.275C97.13 111.876 91.316 116.292 84.328 119.511C77.333 122.732 69.21 124.346 59.943 124.346C56.957 124.346 53.618 124.039 49.931 123.427C46.239 122.806 42.59 121.813 38.979 120.431C35.369 119.049 31.947 117.16 28.728 114.781C25.509 112.4 22.801 109.446 20.604 105.905L20.2 105.905L20.2 167.376L0 167.376L0 2.77ZM91.898 45.107C90.408 39.815 88.143 35.096 85.088 30.951C82.032 26.807 78.113 23.507 73.334 21.053C68.549 18.598 62.951 17.37 56.531 17.37C49.789 17.37 44.071 18.678 39.374 21.287C34.671 23.896 30.834 27.307 27.854 31.526C24.875 35.745 22.722 40.544 21.39 45.917C20.058 51.288 19.395 56.735 19.395 62.255C19.395 68.09 20.095 73.729 21.51 79.174C22.917 84.628 25.152 89.419 28.208 93.565C31.262 97.71 35.214 101.047 40.075 103.577C44.935 106.11 50.813 107.375 57.705 107.375C64.598 107.375 70.355 106.074 74.976 103.465C79.597 100.856 83.322 97.403 86.143 93.103C88.959 88.81 90.997 83.901 92.253 78.374C93.503 72.847 94.134 67.172 94.134 61.338C94.132 55.814 93.387 50.405 91.898 45.107Z" sodipodi:nodetypes="ccccccccccccccccccccccccccccccccccccccc"/>
<path id="shape2" transform="matrix(0.0496296279900689 0 0 0.0496296279900689 27.242589174088 29.5836557500993)" fill="#ffffff" stroke-opacity="0" stroke="#000000" stroke-width="0" stroke-linecap="square" stroke-linejoin="bevel" d="M93.014 114.225C83.885 120.973 72.404 124.346 58.553 124.346C48.794 124.346 40.329 122.812 33.171 119.746C26.006 116.675 19.985 112.375 15.105 106.848C10.226 101.322 6.565 94.723 4.128 87.044C1.692 79.369 0.316 70.999 0 61.945C0 52.89 1.414 44.601 4.254 37.075C7.088 29.551 11.065 23.025 16.185 17.498C21.304 11.971 27.37 7.679 34.377 4.607C41.384 1.536 49.066 0 57.418 0C68.288 0 77.302 2.195 84.472 6.575C91.644 10.96 97.394 16.536 101.724 23.303C106.055 30.075 109.053 37.458 110.707 45.451C112.361 53.451 113.03 61.063 112.715 68.292L21.412 68.292C21.254 73.504 21.879 78.445 23.293 83.12C24.707 87.795 26.98 91.934 30.123 95.537C33.267 99.138 37.269 102.006 42.142 104.152C47.009 106.299 52.741 107.372 59.337 107.372C67.814 107.372 74.765 105.455 80.181 101.611C85.597 97.768 89.169 91.928 90.899 84.082L110.72 84.082C108.043 97.43 102.142 107.477 93.014 114.225ZM88.12 37.822C86.317 33.689 83.886 30.124 80.831 27.139C77.769 24.154 74.159 21.779 70.004 20.015C65.844 18.251 61.255 17.369 56.237 17.369C51.061 17.369 46.39 18.251 42.236 20.015C38.076 21.779 34.51 24.191 31.53 27.25C28.55 30.315 26.196 33.881 24.472 37.939C22.743 41.998 21.726 46.327 21.411 50.922L91.304 50.922C90.987 46.327 89.927 41.96 88.12 37.822Z" sodipodi:nodetypes="ccccccccccccccccccccccccccccccccc"/>
<path id="shape3" transform="matrix(0.0496296279900689 0 0 0.0496296279900689 33.4997934118199 29.5836557500993)" fill="#ffffff" stroke-opacity="0" stroke="#000000" stroke-width="0" stroke-linecap="square" stroke-linejoin="bevel" d="M19.013 2.77L19.013 21.675L19.392 21.675C27.761 7.229 41.037 0 59.21 0C67.265 0 73.979 1.079 79.358 3.232C84.729 5.385 89.073 8.382 92.393 12.226C95.713 16.068 98.043 20.639 99.387 25.943C100.725 31.248 101.401 37.127 101.401 43.584L101.401 121.979L81.202 121.979L81.202 41.332C81.202 33.961 78.991 28.126 74.579 23.821C70.161 19.521 64.095 17.368 56.374 17.368C50.228 17.368 44.905 18.294 40.411 20.138C35.917 21.983 32.173 24.591 29.181 27.971C26.191 31.351 23.943 35.305 22.447 39.832C20.945 44.365 20.199 49.318 20.199 54.697L20.199 121.976L0 121.976L0 2.77Z" sodipodi:nodetypes="ccccccccccccccccccccc"/>
<path id="shape4" transform="matrix(0.0496296279900689 0 0 0.0496296279900689 39.4182754385195 26.1160336424332)" fill="#ffffff" stroke-opacity="0" stroke="#000000" stroke-width="0" stroke-linecap="square" stroke-linejoin="bevel" d="M121.785 190.553C112.664 194.31 103.453 196.192 94.162 196.192C79.492 196.192 66.305 193.692 54.59 188.709C42.873 183.72 32.996 176.849 24.947 168.09C16.898 159.338 10.73 149.05 6.437 137.232C2.146 125.415 0 112.671 0 99.015C0 85.014 2.141 72.011 6.42 60.015C10.701 48.024 16.854 37.564 24.883 28.632C32.914 19.7 42.78 12.7 54.488 7.617C66.197 2.541 79.384 0 94.054 0C103.888 0 113.408 1.449 122.616 4.343C131.827 7.241 140.141 11.497 147.565 17.11C154.987 22.723 161.11 29.643 165.938 37.865C170.768 46.093 173.723 55.53 174.795 66.188L134.561 66.188C132.055 55.709 127.225 47.844 120.073 42.602C112.915 37.359 104.243 34.738 94.053 34.738C84.573 34.738 76.524 36.532 69.909 40.122C63.294 43.712 57.927 48.53 53.811 54.568C49.696 60.612 46.704 67.483 44.831 75.187C42.948 82.891 42.015 90.854 42.015 99.082C42.015 106.965 42.954 114.625 44.835 122.064C46.718 129.502 49.716 136.2 53.831 142.153C57.946 148.104 63.319 152.872 69.946 156.462C76.569 160.052 84.628 161.847 94.124 161.847C108.087 161.847 118.868 158.407 126.479 151.522C134.092 144.639 138.524 134.659 139.78 121.583L97.399 121.583L97.399 90.792L177.756 90.792L177.756 191.991L151.018 191.991L146.737 170.761C139.226 180.197 130.906 186.797 121.785 190.553Z" sodipodi:nodetypes="cccccccccccccccccccccccccccccccccc"/>
<path id="shape5" transform="matrix(0.0496296279900689 0 0 0.0496296279900689 49.5444565854732 26.3510795605942)" fill="#ffffff" stroke-opacity="0" stroke="#000000" stroke-width="0" stroke-linecap="square" stroke-linejoin="bevel" d="M42.016 0L42.016 152.374L135.37 152.374L135.37 187.111L0 187.111L0 0Z" sodipodi:nodetypes="ccccccc"/>
<path id="shape6" transform="matrix(0.0496296279900689 0 0 0.0496296279900689 5.14117575491968 19.8707400627978)" fill="#ffffff" stroke-opacity="0" stroke="#000000" stroke-width="0" stroke-linecap="square" stroke-linejoin="bevel" d="M738.008 340.945C673.723 379.15 577.44 400.896 470.012 400.896C276.464 400.896 119.561 322.146 119.561 224.999C119.561 127.852 276.464 49.102 470.012 49.102C577.834 49.102 674.508 71.251 738.795 109.695C668.625 45.282 542.81 0.0220091 398.957 9.11998e-06C178.639 -0.0349909 0.0190015 100.675 1.51593e-06 224.938C-0.0189985 349.199 178.568 449.97 398.887 450C542.168 450.024 667.656 404.908 738.008 340.945Z" sodipodi:nodetypes="ccccccccc"/><g id="group0" transform="matrix(0.06 0 0 0.06 -0.255804049867822 0.989999990204538)" fill="none">
<path id="shape7" transform="translate(1108.754, 307.89)" fill="#5586a4" stroke-opacity="0" stroke="#000000" stroke-width="0" stroke-linecap="square" stroke-linejoin="bevel" d="M35.094 17.537C35.094 20.678 34.308 23.604 32.738 26.316C31.168 29.028 29.027 31.166 26.315 32.728C23.603 34.291 20.676 35.073 17.536 35.073C14.41 35.073 11.491 34.292 8.779 32.728C6.067 31.166 3.925 29.028 2.355 26.316C0.784 23.604 0 20.677 0 17.537C0 14.411 0.784 11.489 2.355 8.768C3.925 6.048 6.067 3.908 8.779 2.344C11.491 0.782 14.41 0 17.536 0C20.677 0 23.603 0.781 26.315 2.344C29.027 3.908 31.168 6.048 32.738 8.768C34.308 11.489 35.094 14.411 35.094 17.537ZM31.692 17.537C31.692 13.63 30.309 10.293 27.544 7.527C24.777 4.761 21.441 3.379 17.535 3.379C13.628 3.379 10.291 4.762 7.525 7.527C4.759 10.293 3.377 13.63 3.377 17.537C3.377 21.444 4.76 24.78 7.525 27.546C10.291 30.312 13.628 31.694 17.535 31.694C21.441 31.694 24.777 30.311 27.544 27.546C30.309 24.78 31.692 21.444 31.692 17.537ZM9.582 8.16L17.972 8.16C20.346 8.16 22.067 8.638 23.131 9.596C24.195 10.553 24.729 11.836 24.729 13.446C24.729 14.702 24.323 15.79 23.511 16.71C22.699 17.629 21.419 18.296 19.672 18.709C20.392 18.985 20.921 19.276 21.258 19.582C21.733 20.012 22.231 20.647 22.752 21.49C22.782 21.551 23.793 23.36 25.786 26.914L20.269 26.914C18.477 23.345 17.274 21.21 16.662 20.513C16.048 19.817 15.435 19.467 14.822 19.467C14.684 19.467 14.492 19.49 14.248 19.536L14.248 26.914L9.582 26.914ZM14.248 16.111L16.27 16.111C17.618 16.111 18.569 15.893 19.121 15.457C19.672 15.019 19.948 14.457 19.948 13.767C19.948 13.078 19.683 12.514 19.155 12.078C18.626 11.641 17.725 11.424 16.454 11.424L14.248 11.424Z" sodipodi:nodetypes="cccccccccccccccccccccccccccccccccccccccccccccc"/>
 </g>
</svg>
