<?xml version="1.0" standalone="no"?>
<!DOCTYPE svg PUBLIC "-//W3C//DTD SVG 20010904//EN" "http://www.w3.org/TR/2001/REC-SVG-20010904/DTD/svg10.dtd">
<!-- Created using Krita: https://krita.org -->
<svg xmlns="http://www.w3.org/2000/svg" 
    xmlns:xlink="http://www.w3.org/1999/xlink"
    xmlns:krita="http://krita.org/namespaces/svg/krita"
    xmlns:sodipodi="http://sodipodi.sourceforge.net/DTD/sodipodi-0.dtd"
    width="61.44pt"
    height="61.44pt"
    viewBox="0 0 61.44 61.44">
<defs>
  <linearGradient id="gradient0" gradientUnits="objectBoundingBox" x1="0.5" y1="0" x2="0.5" y2="1" spreadMethod="pad">
   <stop stop-color="#111d2e" offset="0" stop-opacity="1"/>
   <stop stop-color="#051839" offset="0.212000012397766" stop-opacity="1"/>
   <stop stop-color="#0a1b48" offset="0.407000005245209" stop-opacity="1"/>
   <stop stop-color="#132e62" offset="0.580999970436096" stop-opacity="1"/>
   <stop stop-color="#144b7e" offset="0.73800003528595" stop-opacity="1"/>
   <stop stop-color="#136497" offset="0.873000025749207" stop-opacity="1"/>
   <stop stop-color="#1387b8" offset="1" stop-opacity="1"/>
  </linearGradient>
 </defs>
<path id="shape0" transform="matrix(1.18774694089213 0 0 1.18774694089213 3.6750021558862 0.347168450102203)" fill="#e6f1d9" stroke="#ffff" stroke-width="0.8" stroke-linecap="square" stroke-linejoin="bevel" d="M24.75 50.6486C23.31 51.3086 21.99 51.3086 20.79 50.6486C19.59 49.9886 13.26 46.3286 1.8 39.6686C0.66 38.7686 0.09 37.7186 0.09 36.5186C0.09 35.3186 0.06 27.9686 0 14.4686C0.3 13.0286 0.87 12.0386 1.71 11.4986C2.55 10.9586 8.94 7.26857 20.88 0.428571C22.32 -0.171429 23.61 -0.141429 24.75 0.518571C25.89 1.17857 32.25 4.83857 43.83 11.4986C44.91 12.4586 45.45 13.3586 45.45 14.1986C45.45 15.0386 45.48 22.5086 45.54 36.6086C45.36 37.9886 44.7 39.0386 43.56 39.7586C41.85 40.8386 41.85 40.8386 24.75 50.6486Z" sodipodi:nodetypes="czczczczczccc"/><g id="B_66be5d10" transform="matrix(0.677308754986481 0 0 0.677308754986481 8.99999966420065 8.99999966420068)" fill="none">
  <g id="B" fill="none">
   <g id="group0" fill="none">
    <path id="shape01" transform="translate(0.0279999999999996, 0)" fill="url(#gradient0)" stroke-opacity="0" stroke="#000000" stroke-width="0" stroke-linecap="square" stroke-linejoin="bevel" d="M1.277 41.202C5.231 54.386 17.46 64 31.931 64C49.604 64 63.931 49.673 63.931 32C63.931 14.327 49.604 0 31.931 0C14.973 0 1.096 13.193 0 29.874C2.074 33.351 2.879 35.502 1.275 41.202Z" sodipodi:nodetypes="ccccccc"/>
    <path id="shape1" transform="translate(0.000124743786458659, 11.811)" fill="#ffffff" stroke-opacity="0" stroke="#000000" stroke-width="0" stroke-linecap="square" stroke-linejoin="bevel" d="M30.3099 12.174L30.3129 12.332L22.4829 23.707C21.2149 23.649 19.9429 23.872 18.7349 24.369C18.209 24.5827 17.7069 24.8508 17.2369 25.169L0.0418752 18.082C0.0418752 18.082 -0.356124 24.628 1.30188 29.506L13.4579 34.522C14.0579 37.25 15.9379 39.642 18.6999 40.792C20.872 41.6945 23.3161 41.6981 25.4908 40.8018C27.6655 39.9055 29.3974 38.1809 30.3029 36.01C30.7861 34.8532 31.0192 33.6072 30.9869 32.354L42.1799 24.349L42.4549 24.354C49.1599 24.354 54.6099 18.888 54.6099 12.174C54.6099 5.46 49.1699 0.014 42.4549 0C35.7529 0 30.2999 5.46 30.2999 12.174ZM28.4299 35.224C26.9759 38.724 22.9639 40.371 19.4769 38.918C17.9299 38.2679 16.675 37.0707 15.9529 35.556L19.9099 37.196C20.7269 37.5361 21.6193 37.6551 22.4969 37.5409C23.3745 37.4267 24.2067 37.0834 24.9095 36.5456C25.6124 36.0078 26.1613 35.2942 26.5009 34.477C27.0152 33.242 27.0182 31.8519 26.5093 30.6147C26.0005 29.3774 25.0203 28.3918 23.7859 27.876L19.6859 26.181C21.2639 25.581 23.0579 25.561 24.7359 26.258C26.4359 26.961 27.7359 28.285 28.4319 29.978C29.1279 31.671 29.1239 33.538 28.4219 35.224M42.4659 20.289C40.3182 20.2832 38.2581 19.4255 36.7409 17.9054C35.2236 16.3853 34.3697 14.3237 34.3679 12.176C34.3702 10.0286 35.2244 7.96751 36.7416 6.44787C38.2588 4.92823 40.3185 4.07082 42.4659 4.065C44.6136 4.07029 46.6738 4.92747 48.1915 6.44717C49.7091 7.96686 50.5635 10.0283 50.5659 12.176C50.564 14.3241 49.7099 16.386 48.1922 17.9061C46.6745 19.4263 44.6139 20.2837 42.4659 20.289M36.3979 12.163C36.3965 10.5493 37.0366 8.99947 38.1763 7.85702C39.3159 6.71457 40.8642 6.07065 42.4779 6.068C45.8329 6.068 48.5619 8.798 48.5619 12.163C48.5627 13.777 47.9218 15.327 46.7813 16.4691C45.6409 17.6112 44.0919 18.2544 42.4779 18.256C40.8644 18.2536 39.3162 17.6101 38.1764 16.468C37.0366 15.326 36.3961 13.7765 36.3969 12.163Z" sodipodi:nodetypes="ccccccccccccccccccccccccccccccccccccccccccccccccc"/>
   </g>
  </g>
 </g>
</svg>
