<?xml version="1.0" standalone="no"?>
<!DOCTYPE svg PUBLIC "-//W3C//DTD SVG 20010904//EN" "http://www.w3.org/TR/2001/REC-SVG-20010904/DTD/svg10.dtd">
<!-- Created using Krita: https://krita.org -->
<svg xmlns="http://www.w3.org/2000/svg" 
    xmlns:xlink="http://www.w3.org/1999/xlink"
    xmlns:krita="http://krita.org/namespaces/svg/krita"
    xmlns:sodipodi="http://sodipodi.sourceforge.net/DTD/sodipodi-0.dtd"
    width="61.44pt"
    height="61.44pt"
    viewBox="0 0 61.44 61.44">
<defs/>
<path id="shape0" transform="matrix(1.18774694089213 0 0 1.18774694089213 3.6750021558862 0.347169977205412)" fill="#66111E" stroke="#ffff" stroke-width="0.8" stroke-linecap="square" stroke-linejoin="bevel" d="M24.75 50.6486C23.31 51.3086 21.99 51.3086 20.79 50.6486C19.59 49.9886 13.26 46.3286 1.8 39.6686C0.66 38.7686 0.09 37.7186 0.09 36.5186C0.09 35.3186 0.06 27.9686 0 14.4686C0.3 13.0286 0.87 12.0386 1.71 11.4986C2.55 10.9586 8.94 7.26857 20.88 0.428571C22.32 -0.171429 23.61 -0.141429 24.75 0.518571C25.89 1.17857 32.25 4.83857 43.83 11.4986C44.91 12.4586 45.45 13.3586 45.45 14.1986C45.45 15.0386 45.48 22.5086 45.54 36.6086C45.36 37.9886 44.7 39.0386 43.56 39.7586C41.85 40.8386 41.85 40.8386 24.75 50.6486Z" sodipodi:nodetypes="czczczczczccc"/>
<rect id="shape1" transform="translate(7.44, 14.7599989741835)" fill="#66111E" stroke="#ffffff" stroke-width="0.48" stroke-linecap="square" stroke-linejoin="bevel" width="46.56" height="32.0400005627249"/><path id="shape5" transform="translate(7.85999968798279, 18.3599999935919)" fill="none" stroke="#ffffff" stroke-width="0.48" stroke-linecap="square" stroke-linejoin="miter" stroke-miterlimit="2" d="M46.02 0L0 7.10543e-15" sodipodi:nodetypes="cc"/>
<circle id="shape2" transform="matrix(1.42527930525429 0 0 1.42527930525429 49.2534637401668 15.0600001626295)" r="0.960000000000001" cx="0.960000000000001" cy="0.960000000000001" fill="#ff6d88" fill-rule="evenodd" stroke="#ffffff" stroke-width="0.24" stroke-linecap="square" stroke-linejoin="bevel"/>
<circle id="shape01" transform="matrix(1.42527930525429 0 0 1.42527930525429 45.1828905464861 15.0942313274631)" r="0.960000000000001" cx="0.960000000000001" cy="0.960000000000001" fill="#ffc2cd" stroke="#ffffff" stroke-width="0.24" stroke-linecap="square" stroke-linejoin="bevel"/>
<circle id="shape02" transform="matrix(1.42527930525429 0 0 1.42527930525429 41.1978341102745 15.1284624922966)" r="0.960000000000001" cx="0.960000000000001" cy="0.960000000000001" fill="#ffc2cd" stroke="#ffffff" stroke-width="0.24" stroke-linecap="square" stroke-linejoin="bevel"/>
<path id="shape3" transform="matrix(0.32464112585972 0 0 1 48.6512711051849 22.4099997836137)" fill="none" stroke="#ffffff" stroke-width="0.48" stroke-linecap="square" stroke-linejoin="miter" stroke-miterlimit="2" d="M0 0L10.4813 0" sodipodi:nodetypes="cc"/>
<path id="shape4" transform="matrix(0.32464112585972 0 0 1 48.6658799552686 24.1199997666929)" fill="none" stroke="#ffffff" stroke-width="0.48" stroke-linecap="square" stroke-linejoin="miter" stroke-miterlimit="2" d="M0 0L6.54811 0" sodipodi:nodetypes="cc"/>
<path id="shape6" transform="matrix(0.32464112585972 0 0 1 48.6804888053524 26.4599997435382)" fill="none" stroke="#ffffff" stroke-width="0.48" stroke-linecap="square" stroke-linejoin="miter" stroke-miterlimit="2" d="M0 0L3.537 0" sodipodi:nodetypes="cc"/>
<path id="shape7" transform="matrix(0.386881140467142 0 0 1 47.7899966786064 32.0399996883232)" fill="none" stroke="#ffffff" stroke-width="0.48" stroke-linecap="square" stroke-linejoin="miter" stroke-miterlimit="2" d="M0 0L12.8075 0" sodipodi:nodetypes="cc"/>
<path id="shape8" transform="matrix(0.335009936968485 0 0 1 48.7469682636936 34.4699996642779)" fill="none" stroke="#ffffff" stroke-width="0.48" stroke-linecap="square" stroke-linejoin="miter" stroke-miterlimit="2" d="M0 0L10.7854 0" sodipodi:nodetypes="cc"/>
<path id="shape9" transform="matrix(0.335009936968485 0 0 1 48.7720944177152 36.3599996402117)" fill="none" stroke="#ffffff" stroke-width="0.48" stroke-linecap="square" stroke-linejoin="miter" stroke-miterlimit="2" d="M0 0L9.90685 0" sodipodi:nodetypes="cc"/>
<path id="shape10" transform="matrix(0.335009936968485 0 0 1 48.797219752244 39.0599996134947)" fill="none" stroke="#ffffff" stroke-width="0.48" stroke-linecap="square" stroke-linejoin="miter" stroke-miterlimit="2" d="M0 0L7.39728 0" sodipodi:nodetypes="cc"/>
<path id="shape11" transform="matrix(1.30585414286842 0 0 1.20989630352476 8.64854464469268 29.8568136549441)" fill="#ffffff" stroke-opacity="0" stroke="#000000" stroke-width="0" stroke-linecap="square" stroke-linejoin="bevel" d="M2.29968 -8.52L2.29968 0L0.760196 0L0.760196 -8.52L2.29968 -8.52M10.3824 0L10.3824 -3.51C10.3824 -3.865 10.3037 -4.13937 10.1464 -4.33312C9.989 -4.52688 9.76569 -4.62375 9.47642 -4.62375C9.19062 -4.62375 8.97078 -4.53062 8.81689 -4.34437C8.663 -4.15812 8.58605 -3.89562 8.58605 -3.55687L8.31009 -4.96312C8.48828 -5.35062 8.71969 -5.64875 9.00433 -5.8575C9.28897 -6.06625 9.6037 -6.17062 9.9485 -6.17062C10.5594 -6.17062 11.0321 -5.93937 11.3665 -5.47687C11.7009 -5.01438 11.8681 -4.36062 11.8681 -3.51563L11.8681 0L10.3824 0M3.82007 0L3.82007 -6.0825L5.30575 -6.0825L5.30575 0L3.82007 0M7.10037 0L7.10037 -3.51C7.10037 -3.865 7.01995 -4.13937 6.85912 -4.33312C6.69829 -4.52688 6.46803 -4.62375 6.16835 -4.62375C5.89297 -4.62375 5.68035 -4.54062 5.53051 -4.37437C5.38067 -4.20812 5.30575 -3.97437 5.30575 -3.67312L5.1912 -5.02125C5.35435 -5.38875 5.55973 -5.67219 5.80734 -5.87156C6.05496 -6.07094 6.35117 -6.17062 6.69597 -6.17062C7.29649 -6.17062 7.76164 -5.93937 8.0914 -5.47687C8.42117 -5.01438 8.58605 -4.36062 8.58605 -3.51563L8.58605 0L7.10037 0M16.3147 -4.76438L19.0483 -4.76438L19.0483 -3.09937C19.0483 -2.45938 18.9291 -1.9 18.6908 -1.42125C18.4524 -0.9425 18.1192 -0.57125 17.691 -0.3075C17.2629 -0.04375 16.759 0.088125 16.1793 0.088125C15.5973 0.088125 15.0885 -0.0359375 14.6529 -0.284062C14.2172 -0.532187 13.8791 -0.881875 13.6384 -1.33312C13.3977 -1.78437 13.2774 -2.31062 13.2774 -2.91187L13.2774 -5.42625C13.2774 -6.06625 13.3969 -6.62469 13.6358 -7.10156C13.8747 -7.57844 14.2083 -7.94875 14.6364 -8.2125C15.0645 -8.47625 15.5684 -8.60812 16.1481 -8.60812C16.6248 -8.60812 17.0596 -8.5025 17.4524 -8.29125C17.8452 -8.08 18.175 -7.785 18.4417 -7.40625C18.7084 -7.0275 18.8892 -6.58437 18.9841 -6.07687L17.3786 -6.07687C17.2988 -6.35438 17.1406 -6.56812 16.904 -6.71812C16.6673 -6.86813 16.4148 -6.94312 16.1464 -6.94312C15.7449 -6.94312 15.4232 -6.80406 15.1814 -6.52594C14.9395 -6.24781 14.8186 -5.88125 14.8186 -5.42625L14.8186 -2.91187C14.8186 -2.50813 14.943 -2.18469 15.1918 -1.94156C15.4405 -1.69844 15.7692 -1.57688 16.1776 -1.57688C16.5803 -1.57688 16.9028 -1.70875 17.1452 -1.9725C17.3876 -2.23625 17.5088 -2.60438 17.5088 -3.07687L17.5088 -3.2175L16.3147 -3.2175L16.3147 -4.76438M23.1721 0.088125C22.2592 0.088125 21.5519 -0.188437 21.0503 -0.741563C20.5487 -1.29469 20.2979 -2.075 20.2979 -3.0825L20.2979 -8.52L21.7836 -8.52L21.7836 -3.04125C21.7836 -2.5525 21.9045 -2.17344 22.1464 -1.90406C22.3882 -1.63469 22.7301 -1.5 23.1721 -1.5C23.6164 -1.5 23.9606 -1.63469 24.2048 -1.90406C24.4489 -2.17344 24.571 -2.5525 24.571 -3.04125L24.571 -8.52L26.0567 -8.52L26.0567 -3.0825C26.0567 -2.075 25.805 -1.29469 25.3017 -0.741563C24.7984 -0.188437 24.0885 0.088125 23.1721 0.088125M29.0089 -8.52L29.0089 0L27.4695 0L27.4695 -8.52L29.0089 -8.52" sodipodi:nodetypes="ccccccccccccccccccccccccccccccccccccccccccccccccccccccccccccccccccccccccccccccccccccc"/>
<path id="shape12" transform="matrix(1.30585414286842 0 0 1.20989630352476 12.5647308462601 25.9367496703136)" fill="#ffffff" stroke-opacity="0" stroke="#000000" stroke-width="0" stroke-linecap="square" stroke-linejoin="bevel" d="M2.9775 16.7231C2.49375 16.7231 2.06094 16.6381 1.67906 16.4681C1.29719 16.2981 1.00125 16.0587 0.79125 15.75L1.86938 14.76C2.00563 14.9038 2.16969 15.0169 2.36156 15.0994C2.55344 15.1819 2.7525 15.2231 2.95875 15.2231C3.28375 15.2231 3.55531 15.1328 3.77344 14.9522C3.99156 14.7716 4.10062 14.5162 4.10062 14.1862L4.10062 8.1675L5.7075 8.1675L5.7075 14.0681C5.7075 14.9119 5.46969 15.5653 4.99406 16.0284C4.51844 16.4916 3.84625 16.7231 2.9775 16.7231M2.68875 14.3381C2.04125 14.3381 1.53875 14.1084 1.18125 13.6491C0.82375 13.1897 0.645 12.5425 0.645 11.7075L0.645 10.7344C0.645 9.88938 0.82375 9.23562 1.18125 8.77313C1.53875 8.31063 2.04125 8.07938 2.68875 8.07938C3.0125 8.07938 3.30844 8.17625 3.57656 8.37C3.84469 8.56375 4.06062 8.83812 4.22438 9.19313L4.10062 10.5412C4.10062 10.3338 4.06531 10.1575 3.99469 10.0125C3.92406 9.8675 3.82187 9.75719 3.68812 9.68156C3.55437 9.60594 3.39125 9.56813 3.19875 9.56813C2.8975 9.56813 2.66406 9.67063 2.49844 9.87562C2.33281 10.0806 2.25 10.3688 2.25 10.74L2.25 11.7075C2.25 12.0725 2.33281 12.3541 2.49844 12.5522C2.66406 12.7503 2.8975 12.8494 3.19875 12.8494C3.39125 12.8494 3.55437 12.8122 3.68812 12.7378C3.82187 12.6634 3.92406 12.5559 3.99469 12.4153C4.06531 12.2747 4.10062 12.105 4.10062 11.9063L4.18312 13.2956C4.06188 13.6269 3.87156 13.8834 3.61219 14.0653C3.35281 14.2472 3.045 14.3381 2.68875 14.3381M8.895 5.73L8.895 12.24C8.895 12.385 8.9375 12.4984 9.0225 12.5803C9.1075 12.6622 9.22687 12.7031 9.38063 12.7031L9.65062 12.7031L9.65062 14.25L8.82937 14.25C8.34187 14.25 7.96344 14.1094 7.69406 13.8281C7.42469 13.5469 7.29 13.1506 7.29 12.6394L7.29 5.73L8.895 5.73M10.9388 14.25L10.9388 7.3425C10.9388 6.80625 11.0619 6.40344 11.3081 6.13406C11.5544 5.86469 11.9375 5.73 12.4575 5.73L13.5694 5.73L13.5694 7.16063L12.8906 7.16063C12.7694 7.16063 12.6816 7.20656 12.6272 7.29844C12.5728 7.39031 12.5456 7.49875 12.5456 7.62375L12.5456 14.25L10.9388 14.25M10.2956 9.53813L10.2956 8.1675L13.5694 8.1675L13.5694 9.53813L10.2956 9.53813M15.9131 14.25L14.0381 8.1675L15.5794 8.1675L16.6575 11.9231L17.94 8.1675L18.8906 8.1675L20.1731 11.9231L21.2513 8.1675L22.7925 8.1675L20.9175 14.25L19.7213 14.25L18.4163 10.2825L17.1094 14.25L15.9131 14.25" sodipodi:nodetypes="ccccccccccccccccccccccccccccccccccccccccccccccccccccccccccccccccccccccccccccc"/>
</svg>
