<?xml version="1.0" standalone="no"?>
<!DOCTYPE svg PUBLIC "-//W3C//DTD SVG 20010904//EN" "http://www.w3.org/TR/2001/REC-SVG-20010904/DTD/svg10.dtd">
<!-- Created using Krita: https://krita.org -->
<svg xmlns="http://www.w3.org/2000/svg" 
    xmlns:xlink="http://www.w3.org/1999/xlink"
    xmlns:krita="http://krita.org/namespaces/svg/krita"
    xmlns:sodipodi="http://sodipodi.sourceforge.net/DTD/sodipodi-0.dtd"
    width="61.44pt"
    height="61.44pt"
    viewBox="0 0 61.44 61.44">
<defs/>
<path id="shape0" transform="matrix(1.18774694089213 0 0 1.18774694089213 3.6750021558862 0.347171504308622)" fill="#283f63" stroke="#ffff" stroke-width="0.8" stroke-linecap="square" stroke-linejoin="bevel" d="M24.75 50.6486C23.31 51.3086 21.99 51.3086 20.79 50.6486C19.59 49.9886 13.26 46.3286 1.8 39.6686C0.66 38.7686 0.09 37.7186 0.09 36.5186C0.09 35.3186 0.06 27.9686 0 14.4686C0.3 13.0286 0.87 12.0386 1.71 11.4986C2.55 10.9586 8.94 7.26857 20.88 0.428571C22.32 -0.171429 23.61 -0.141429 24.75 0.518571C25.89 1.17857 32.25 4.83857 43.83 11.4986C44.91 12.4586 45.45 13.3586 45.45 14.1986C45.45 15.0386 45.48 22.5086 45.54 36.6086C45.36 37.9886 44.7 39.0386 43.56 39.7586C41.85 40.8386 41.85 40.8386 24.75 50.6486Z" sodipodi:nodetypes="czczczczczccc"/>
<path id="shape01" transform="translate(22.7555085794515, 37.1849971868928)" fill="none" stroke="#ffffff" stroke-width="1.8" stroke-linecap="square" stroke-linejoin="miter" stroke-miterlimit="2" d="M7.9645 0L7.9645 2.04L0 5.94556L0.0444917 8.52" sodipodi:nodetypes="cccc"/>
<path id="shape02" transform="matrix(-1 0 0 1 39.5399992824055 36.4199972792734)" fill="none" stroke="#ffffff" stroke-width="1.8" stroke-linecap="square" stroke-linejoin="miter" stroke-miterlimit="2" d="M8.8045 0L8.8045 2.76L0 6.66556L0.0444917 9.24" sodipodi:nodetypes="cccc"/>
<path id="shape03" transform="matrix(-1 0 0 1 34.2305076724168 38.3999971416633)" fill="none" stroke="#ffffff" stroke-width="1.8" stroke-linecap="square" stroke-linejoin="miter" stroke-miterlimit="2" d="M3.495 0L3.495 0.975L0.0155083 8.04556L0 13.62" sodipodi:nodetypes="cccc"/>
<path id="shape04" transform="matrix(-1 0 0 1 30.7355079515291 38.5949971343694)" fill="none" stroke="#ffffff" stroke-width="1.8" stroke-linecap="square" stroke-linejoin="miter" stroke-miterlimit="2" d="M0.015508 0L0 0.795L2.05551 7.89556L2.01 15.015" sodipodi:nodetypes="cccc"/><ellipse id="shape1" transform="translate(32.8050000759133, 52.3350000796469)" rx="1.38" ry="1.32" cx="1.38" cy="1.32" fill="none" stroke="#ffffff" stroke-width="1.2" stroke-linecap="square" stroke-linejoin="bevel"/><ellipse id="shape011" transform="translate(27.3633810327379, 53.9283810373439)" rx="1.38" ry="1.32" cx="1.38" cy="1.32" fill="none" stroke="#ffffff" stroke-width="1.2" stroke-linecap="square" stroke-linejoin="bevel"/><ellipse id="shape021" transform="translate(21.3633810205832, 46.1283811145259)" rx="1.38" ry="1.32" cx="1.38" cy="1.32" fill="none" stroke="#ffffff" stroke-width="1.2" stroke-linecap="square" stroke-linejoin="bevel"/><ellipse id="shape031" transform="translate(37.9833809276516, 46.368381112151)" rx="1.38" ry="1.32" cx="1.38" cy="1.32" fill="none" stroke="#ffffff" stroke-width="1.2" stroke-linecap="square" stroke-linejoin="bevel"/><ellipse id="shape032" transform="translate(28.5284670755611, 33.5099996684218)" rx="2.19153292443888" ry="2.09624888424588" cx="2.19153292443888" cy="2.09624888424588" fill="#ffffff" stroke="#ffffff" stroke-width="1.2" stroke-linecap="square" stroke-linejoin="bevel"/><path id="shape05" transform="matrix(1 0 0 1.18439174569583 10.4390625 16.7999988324061)" fill="#ffffff" stroke-opacity="0" stroke="#000000" stroke-width="0" stroke-linecap="square" stroke-linejoin="bevel" d="M17.9775 14.6278L17.9775 7.875C17.9775 6.6075 18.0325 5.20813 18.1425 3.67688L18.0319 3.67688C17.8044 4.88063 17.5994 5.74688 17.4169 6.27563L12.8231 19.605L9.21375 19.605L4.53937 6.4125C4.41188 6.05625 4.20625 5.14438 3.9225 3.67688L3.80063 3.67688C3.91938 5.60938 3.97875 7.305 3.97875 8.76375L3.97875 19.605L0 19.605L0 0L6.46687 0L10.4719 11.6212C10.7906 12.55 11.0231 13.4844 11.1694 14.4244L11.2519 14.4244C11.4981 13.3394 11.7575 12.3956 12.03 11.5931L16.0369 0L22.3388 0L22.3388 14.6278ZM40.5619 3.59625L34.9706 3.59625L34.9706 19.605L30.5419 19.605L30.5419 3.59625L24.9769 3.59625L24.9769 0L40.5619 0L40.5619 3.59625" sodipodi:nodetypes="cccccccccccccccccccccccccccccccc"/>
</svg>
