<?xml version="1.0" standalone="no"?>
<!DOCTYPE svg PUBLIC "-//W3C//DTD SVG 20010904//EN" "http://www.w3.org/TR/2001/REC-SVG-20010904/DTD/svg10.dtd">
<!-- Created using Krita: https://krita.org -->
<svg xmlns="http://www.w3.org/2000/svg" 
    xmlns:xlink="http://www.w3.org/1999/xlink"
    xmlns:krita="http://krita.org/namespaces/svg/krita"
    xmlns:sodipodi="http://sodipodi.sourceforge.net/DTD/sodipodi-0.dtd"
    width="61.44pt"
    height="61.44pt"
    viewBox="0 0 61.44 61.44">
<path id="shape0" transform="matrix(1.18774694089213 0 0 1.18774694089213 3.75000029189948 0.346144925441131)" fill="#283f63" stroke="#ffff" stroke-width="0.8"  d="M24.75 50.6486C23.31 51.3086 21.99 51.3086 20.79 50.6486C19.59 49.9886 13.26 46.3286 1.8 39.6686C0.66 38.7686 0.09 37.7186 0.09 36.5186C0.09 35.3186 0.06 27.9686 0 14.4686C0.3 13.0286 0.87 12.0386 1.71 11.4986C2.55 10.9586 8.94 7.26857 20.88 0.428571C22.32 -0.171429 23.61 -0.141429 24.75 0.518571C25.89 1.17857 32.25 4.83857 43.83 11.4986C44.91 12.4586 45.45 13.3586 45.45 14.1986C45.45 15.0386 45.48 22.5086 45.54 36.6086C45.36 37.9886 44.7 39.0386 43.56 39.7586C41.85 40.8386 41.85 40.8386 24.75 50.6486Z"/>
<path id="shape02" transform="matrix(1.18774694089213 0 0 1.18774694089213 12.6937347568172 12.6177090238677)" fill="#ffffff" stroke="#ffffff" stroke-width="0.24"  d="M21.9573 11.5214C20.6987 9.09578 18.1615 7.44 15.24 7.44C11.0647 7.44 7.68 10.8247 7.68 15C7.68 19.1753 11.0647 22.56 15.24 22.56C18.0073 22.56 20.4899 21.1407 21.8074 18.9223L28.3764 22.725C25.7544 27.3298 20.918 30.48 15.24 30.48C6.82318 30.48 -1.77636e-15 23.6568 0 15.24C1.77636e-15 6.82318 6.82318 0 15.24 0C20.8438 0 25.7217 3.08442 28.3694 7.59005C26.2329 8.90004 24.0938 10.2114 21.9573 11.5214ZM21.9546 11.5228"/>
<path id="shape01" transform="matrix(1.18774694089213 0 0 1.18774694089213 50.0409487560192 27.4229723352764)" fill="#ffffff" fill-rule="evenodd" stroke="#ffffff" stroke-width="0.24" d="M3.56625 5.4675L1.67625 5.47875L1.65375 3.8475L0 3.8475L0 1.71L1.6875 1.71L1.6875 0L3.58875 0.01125L3.58875 1.6875L5.38875 1.69875L5.4 3.85875L3.58875 3.8925Z"/>
<path id="shape03" transform="matrix(1.18774694089213 0 0 1.18774694089213 42.6294078448523 27.4229723352764)" fill="#ffffff" fill-rule="evenodd" stroke="#ffffff" stroke-width="0.24" d="M3.56625 5.4675L1.67625 5.47875L1.65375 3.8475L0 3.8475L0 1.71L1.6875 1.71L1.6875 0L3.58875 0.01125L3.58875 1.6875L5.38875 1.69875L5.4 3.85875L3.58875 3.8925Z"/>
</svg>
