<?xml version="1.0" standalone="no"?>
<!DOCTYPE svg PUBLIC "-//W3C//DTD SVG 20010904//EN" "http://www.w3.org/TR/2001/REC-SVG-20010904/DTD/svg10.dtd">
<!-- Created using Krita: https://krita.org -->
<svg xmlns="http://www.w3.org/2000/svg" 
    xmlns:xlink="http://www.w3.org/1999/xlink"
    xmlns:krita="http://krita.org/namespaces/svg/krita"
    xmlns:sodipodi="http://sodipodi.sourceforge.net/DTD/sodipodi-0.dtd"
    width="61.44pt"
    height="61.44pt"
    viewBox="0 0 61.44 61.44">
<defs/>
<path id="shape0" transform="matrix(1.18774694089213 0 0 1.18774694089213 3.6750021558862 0.347171504308621)" fill="#251F44" stroke="#ffff" stroke-width="0.8" stroke-linecap="square" stroke-linejoin="bevel" d="M24.75 50.6486C23.31 51.3086 21.99 51.3086 20.79 50.6486C19.59 49.9886 13.26 46.3286 1.8 39.6686C0.66 38.7686 0.09 37.7186 0.09 36.5186C0.09 35.3186 0.06 27.9686 0 14.4686C0.3 13.0286 0.87 12.0386 1.71 11.4986C2.55 10.9586 8.94 7.26857 20.88 0.428571C22.32 -0.171429 23.61 -0.141429 24.75 0.518571C25.89 1.17857 32.25 4.83857 43.83 11.4986C44.91 12.4586 45.45 13.3586 45.45 14.1986C45.45 15.0386 45.48 22.5086 45.54 36.6086C45.36 37.9886 44.7 39.0386 43.56 39.7586C41.85 40.8386 41.85 40.8386 24.75 50.6486Z" sodipodi:nodetypes="czczczczczccc"/>
<path id="shape1" transform="translate(0, -4.67999995369419)" fill="#ffffff" fill-rule="evenodd" stroke="#ffffff" stroke-width="0.24" stroke-linecap="square" stroke-linejoin="bevel" d="M30.72 55.8L18.36 52.38L15.5925 21.5775L45.81 21.6L43.065 52.3575L30.72 55.8M21.285 27.6075L40.1625 27.63L38.475 46.89L30.72 49.0275L22.95 46.935L22.455 40.9725L26.2575 40.995L26.4375 43.9425L30.72 45.225L34.9875 43.9875L35.325 39.1275L26.55 39.105L26.235 35.28L35.64 35.2575L36.0675 31.3875L21.6225 31.41L21.285 27.6075" sodipodi:nodetypes="ccccccccccccccccccccccc"/>
</svg>
