<?xml version="1.0" standalone="no"?>
<!DOCTYPE svg PUBLIC "-//W3C//DTD SVG 20010904//EN" "http://www.w3.org/TR/2001/REC-SVG-20010904/DTD/svg10.dtd">
<!-- Created using Krita: https://krita.org -->
<svg xmlns="http://www.w3.org/2000/svg" 
    xmlns:xlink="http://www.w3.org/1999/xlink"
    xmlns:krita="http://krita.org/namespaces/svg/krita"
    xmlns:sodipodi="http://sodipodi.sourceforge.net/DTD/sodipodi-0.dtd"
    width="61.44pt"
    height="61.44pt"
    viewBox="0 0 61.44 61.44">
<defs/>
<path id="shape0" transform="matrix(1.18774694089213 0 0 1.18774694089213 3.6750021558862 0.347168450102203)" fill="#e6f1d9" stroke="#ffff" stroke-width="0.8" stroke-linecap="square" stroke-linejoin="bevel" d="M24.75 50.6486C23.31 51.3086 21.99 51.3086 20.79 50.6486C19.59 49.9886 13.26 46.3286 1.8 39.6686C0.66 38.7686 0.09 37.7186 0.09 36.5186C0.09 35.3186 0.06 27.9686 0 14.4686C0.3 13.0286 0.87 12.0386 1.71 11.4986C2.55 10.9586 8.94 7.26857 20.88 0.428571C22.32 -0.171429 23.61 -0.141429 24.75 0.518571C25.89 1.17857 32.25 4.83857 43.83 11.4986C44.91 12.4586 45.45 13.3586 45.45 14.1986C45.45 15.0386 45.48 22.5086 45.54 36.6086C45.36 37.9886 44.7 39.0386 43.56 39.7586C41.85 40.8386 41.85 40.8386 24.75 50.6486Z" sodipodi:nodetypes="czczczczczccc"/><path id="shape01" transform="matrix(0.140625 0 0 0.140625 7.51989772864407 17.2610954725549)" fill="#333333" stroke-opacity="0" stroke="#000000" stroke-width="0" stroke-linecap="square" stroke-linejoin="bevel" d="M329.957 186.466C317.953 189.516 310.524 186.599 303.859 176.583L256.504 111.056L249.673 101.97L194.327 176.816C187.992 185.802 181.36 189.748 169.588 186.565L240.421 91.4574L174.463 5.56935C185.804 3.34753 193.63 4.47502 200.594 14.6556L249.739 81.0119L299.25 15.0204C305.583 6.03362 312.415 2.58481 323.79 5.90097L298.222 39.792L263.568 84.8917C259.456 90.0318 260.02 93.5803 263.8 98.5542ZM0.0663231 89.8659L5.86959 61.3802C21.6544 4.97245 86.3194 -18.4728 130.888 16.38C156.954 36.8739 163.42 65.8902 162.127 98.3557L15.2543 98.3557C13.0324 156.819 55.1144 192.103 108.77 174.097C127.605 167.762 138.681 153.038 144.219 134.601C147.039 125.349 151.68 123.923 160.37 126.542C155.925 149.59 145.944 168.857 124.787 180.927C93.2167 198.968 48.1174 193.131 24.4069 168.061C10.3132 153.503 4.4768 135.065 1.85704 115.367C1.45911 112.117 0.630069 109 0 105.883C0.0331615 100.544 0.0663231 95.2052 0.0663231 89.8659ZM15.5196 85.9529L148.266 85.9529C147.403 43.672 121.073 13.6608 85.0925 13.3955C45.5971 13.0639 17.244 42.3787 15.5196 85.9529Z" sodipodi:nodetypes="ccccccccccccccccccccccccccccccccc"/>
</svg>
