<?xml version="1.0" standalone="no"?>
<!DOCTYPE svg PUBLIC "-//W3C//DTD SVG 20010904//EN" "http://www.w3.org/TR/2001/REC-SVG-20010904/DTD/svg10.dtd">
<!-- Created using Krita: https://krita.org -->
<svg xmlns="http://www.w3.org/2000/svg" 
    xmlns:xlink="http://www.w3.org/1999/xlink"
    xmlns:krita="http://krita.org/namespaces/svg/krita"
    xmlns:sodipodi="http://sodipodi.sourceforge.net/DTD/sodipodi-0.dtd"
    width="61.44pt"
    height="61.44pt"
    viewBox="0 0 61.44 61.44">
<defs/>
<path id="shape0" transform="matrix(1.18774694089213 0 0 1.18774694089213 3.6750021558862 0.347168450102203)" fill="#e6f1d9" stroke="#ffff" stroke-width="0.8" stroke-linecap="square" stroke-linejoin="bevel" d="M24.75 50.6486C23.31 51.3086 21.99 51.3086 20.79 50.6486C19.59 49.9886 13.26 46.3286 1.8 39.6686C0.66 38.7686 0.09 37.7186 0.09 36.5186C0.09 35.3186 0.06 27.9686 0 14.4686C0.3 13.0286 0.87 12.0386 1.71 11.4986C2.55 10.9586 8.94 7.26857 20.88 0.428571C22.32 -0.171429 23.61 -0.141429 24.75 0.518571C25.89 1.17857 32.25 4.83857 43.83 11.4986C44.91 12.4586 45.45 13.3586 45.45 14.1986C45.45 15.0386 45.48 22.5086 45.54 36.6086C45.36 37.9886 44.7 39.0386 43.56 39.7586C41.85 40.8386 41.85 40.8386 24.75 50.6486Z" sodipodi:nodetypes="czczczczczccc"/>
<path id="shape01" transform="matrix(1.74756008517978 0 0 1.74756008517978 30.5023960155101 2.9096809451025)" fill="#599636" stroke-opacity="0" stroke="#000000" stroke-width="0" stroke-linecap="square" stroke-linejoin="bevel" d="M0.0243729 0L0.878373 1.604C1.07037 1.9 1.27837 2.162 1.52337 2.406C2.24166 3.11533 2.91118 3.87238 3.52737 4.672C4.97437 6.572 5.95037 8.682 6.64737 10.964C7.06537 12.358 7.29237 13.788 7.30937 15.234C7.37937 19.557 5.89737 23.269 2.90937 26.354C2.42334 26.8432 1.89827 27.292 1.33937 27.696C1.04337 27.696 0.903373 27.469 0.781373 27.26C0.559206 26.8725 0.411334 26.4468 0.345373 26.005C0.240373 25.482 0.171373 24.959 0.205373 24.419L0.205373 24.175C0.181373 24.123 -0.0796271 0.123 0.0243729 0Z" sodipodi:nodetypes="ccccccccccccc"/>
<path id="shape1" transform="matrix(1.74756008517978 0 0 1.74756008517978 18.1598966769857 2.75693892179234)" fill="#6cac48" stroke-opacity="0" stroke="#000000" stroke-width="0" stroke-linecap="square" stroke-linejoin="bevel" d="M7.08708 0.034403C7.05208 -0.035597 7.01708 0.017403 6.98208 0.051403C6.99908 0.401403 6.87708 0.713403 6.68608 1.0114C6.47608 1.3074 6.19808 1.5344 5.91908 1.7784C4.36908 3.1204 3.14908 4.7414 2.17208 6.5544C0.872077 8.9944 0.202077 11.6094 0.0120767 14.3624C-0.0749233 15.3554 0.326077 18.8594 0.639077 19.8704C1.49308 22.5544 3.02708 24.8034 5.01408 26.7554C5.50208 27.2254 6.02408 27.6614 6.56408 28.0804C6.72108 28.0804 6.73808 27.9404 6.77408 27.8364C6.84291 27.6139 6.89538 27.3866 6.93108 27.1564L7.28108 24.5424Z" sodipodi:nodetypes="ccccccccccccc"/>
<path id="shape2" transform="matrix(1.74756008517978 0 0 1.74756008517978 29.6310151665982 44.791705946521)" fill="#c2bfbf" stroke-opacity="0" stroke="#000000" stroke-width="0" stroke-linecap="square" stroke-linejoin="bevel" d="M1.377 4.792C1.412 4.392 1.604 4.06 1.813 3.729C1.603 3.642 1.447 3.469 1.325 3.276C1.2198 3.09326 1.13272 2.90068 1.065 2.701C0.821 1.969 0.769 1.201 0.699 0.453L0.699 0C0.612 0.07 0.594 0.662 0.594 0.75C0.543114 1.54058 0.438202 2.32675 0.28 3.103C0.228 3.417 0.193 3.73 0 4.009C0 4.044 0 4.079 0.017 4.131C0.331 5.055 0.417 5.996 0.47 6.955L0.47 7.305C0.47 7.723 0.453 7.635 0.8 7.775C0.94 7.827 1.096 7.845 1.236 7.949C1.341 7.949 1.358 7.862 1.358 7.792L1.306 7.217L1.306 5.613C1.289 5.333 1.341 5.055 1.376 4.793Z" sodipodi:nodetypes="ccccccccccccccccccc"/>
</svg>
