<?xml version="1.0" standalone="no"?>
<!DOCTYPE svg PUBLIC "-//W3C//DTD SVG 20010904//EN" "http://www.w3.org/TR/2001/REC-SVG-20010904/DTD/svg10.dtd">
<!-- Created using Krita: https://krita.org -->
<svg xmlns="http://www.w3.org/2000/svg" 
    xmlns:xlink="http://www.w3.org/1999/xlink"
    xmlns:krita="http://krita.org/namespaces/svg/krita"
    xmlns:sodipodi="http://sodipodi.sourceforge.net/DTD/sodipodi-0.dtd"
    width="61.44pt"
    height="61.44pt"
    viewBox="0 0 61.44 61.44">
<defs/>
<path id="shape0" transform="matrix(1.18774694089213 0 0 1.18774694089213 3.6750021558862 0.347171504308622)" fill="#283f63" stroke="#ffff" stroke-width="0.8" stroke-linecap="square" stroke-linejoin="bevel" d="M24.75 50.6486C23.31 51.3086 21.99 51.3086 20.79 50.6486C19.59 49.9886 13.26 46.3286 1.8 39.6686C0.66 38.7686 0.09 37.7186 0.09 36.5186C0.09 35.3186 0.06 27.9686 0 14.4686C0.3 13.0286 0.87 12.0386 1.71 11.4986C2.55 10.9586 8.94 7.26857 20.88 0.428571C22.32 -0.171429 23.61 -0.141429 24.75 0.518571C25.89 1.17857 32.25 4.83857 43.83 11.4986C44.91 12.4586 45.45 13.3586 45.45 14.1986C45.45 15.0386 45.48 22.5086 45.54 36.6086C45.36 37.9886 44.7 39.0386 43.56 39.7586C41.85 40.8386 41.85 40.8386 24.75 50.6486Z" sodipodi:nodetypes="czczczczczccc"/><path id="shape01" transform="translate(11.2246822152188, 18.5263953429283)" fill="#ffffff" stroke-opacity="0" stroke="#000000" stroke-width="0" stroke-linecap="square" stroke-linejoin="bevel" d="M6.4544 24.3872C2.15146 24.3872 0 20.3782 0 12.3602C0 4.1201 2.15146 0 6.4544 0C10.7562 0 12.9071 4.1201 12.9071 12.3602C12.9071 20.3782 10.7562 24.3872 6.4544 24.3872M6.4544 20.1784C8.55301 20.1784 9.60237 17.5723 9.60237 12.3602C9.60237 6.91455 8.55301 4.19168 6.4544 4.19168C4.3546 4.19168 3.30471 6.91455 3.30471 12.3602C3.30471 17.5723 4.3546 20.1784 6.4544 20.1784M19.9639 24.3872C15.661 24.3872 13.5095 20.3782 13.5095 12.3602C13.5095 4.1201 15.661 4.66294e-15 19.9639 4.66294e-15C24.2656 4.66294e-15 26.4165 4.1201 26.4165 12.3602C26.4165 20.3782 24.2656 24.3872 19.9639 24.3872M19.9639 20.1784C22.0625 20.1784 23.1118 17.5723 23.1118 12.3602C23.1118 6.91455 22.0625 4.19168 19.9639 4.19168C17.8641 4.19168 16.8142 6.91455 16.8142 12.3602C16.8142 17.5723 17.8641 20.1784 19.9639 20.1784M29.9885 16.9774C29.9909 15.5866 29.9934 14.1957 29.9958 12.8049C29.9959 12.7642 29.9961 12.4212 29.996 12.439C29.9942 12.7971 30.2127 13.0496 30.6516 13.1965L32.3231 13.1965C33.3647 13.1965 34.1698 12.7956 34.7382 11.9938C35.3066 11.192 35.5908 10.0724 35.5908 8.6348C35.5908 7.27626 35.3066 6.22982 34.7382 5.49548C34.1698 4.76115 33.3647 4.39391 32.3231 4.39391C31.6122 4.39391 31.3625 4.39391 30.6516 4.39391C30.6027 4.39391 30.04 4.77266 30.0436 5.49266L30.0436 0.333155L32.3231 0.333155C34.4451 0.333155 36.0869 1.0321 37.2484 2.43011C38.4098 3.82813 38.9906 5.8018 38.9906 8.35112C38.9906 11.1801 38.4098 13.3713 37.2484 14.9247C36.0869 16.4781 34.4451 17.2549 32.3231 17.2549L30.6253 17.2549C30.4013 17.2133 30.284 17.4258 30.2735 17.8924M27.1334 23.7729C27.1334 19.8663 27.1334 4.63278 27.1334 0.726154C27.1362 0.458904 27.2673 0.333155 27.3966 0.333155C28.7293 0.333155 29.6914 0.333155 30.2831 0.333155C30.2827 5.02748 30.2821 12.8514 30.2812 23.8048C30.2458 24.0335 30.0525 24.0551 29.8186 24.0542C29.5949 24.0533 27.6008 24.0542 27.3703 24.0542C27.2439 24.0129 27.165 23.9398 27.1334 23.8348Z" sodipodi:nodetypes="ccccccccccccccccccccccscccccccccccccccccccccsccc"/><path id="shape02" transform="matrix(-1 0 0 1 14.0399994426519 15.7350005948622)" fill="#ffffff" stroke-opacity="0" stroke="#000000" stroke-width="0" stroke-linecap="square" stroke-linejoin="bevel" d="M9.18 16.5354C7.52844 16.5354 6.70267 17.5967 6.70267 19.7193L6.70267 23.6526C6.70267 26.0484 6.17659 27.7003 5.12444 28.6082C4.07229 29.5161 2.36415 29.97 0 29.97L0 27.7761C0.90708 27.7761 3.05761 27.4114 3.46731 26.9521C3.87701 26.4927 4.08186 24.8572 4.08186 23.7557L4.08186 20.1292C4.08186 17.4148 4.90764 15.7173 6.55919 15.0366L6.55919 14.9687C4.90764 14.2544 4.08186 12.4781 4.08186 9.63959L4.08186 4.93392C4.08186 2.95889 1.72648 2.10637 0 2.10637L0 0C2.35299 0 4.05835 0.474058 5.11607 1.42217C6.1738 2.37029 6.70267 3.99114 6.70267 6.28472L6.70267 10.1828C6.70267 12.3289 7.52844 13.4019 9.18 13.4019L9.18 16.5354" sodipodi:nodetypes="cccccccccccccccccccc"/><path id="shape03" transform="translate(47.069998276294, 15.7350005948622)" fill="#ffffff" stroke-opacity="0" stroke="#000000" stroke-width="0" stroke-linecap="square" stroke-linejoin="bevel" d="M9.18 16.5354C7.52844 16.5354 6.70267 17.5967 6.70267 19.7193L6.70267 23.6526C6.70267 26.0484 6.17659 27.7003 5.12444 28.6082C4.07229 29.5161 2.36415 29.97 0 29.97L0 27.7761C0.90708 27.7761 3.05761 27.4114 3.46731 26.9521C3.87701 26.4927 4.08186 24.8572 4.08186 23.7557L4.08186 20.1292C4.08186 17.4148 4.90764 15.7173 6.55919 15.0366L6.55919 14.9687C4.90764 14.2544 4.08186 12.4781 4.08186 9.63959L4.08186 4.93392C4.08186 2.95889 1.72648 2.10637 0 2.10637L0 0C2.35299 0 4.05835 0.474058 5.11607 1.42217C6.1738 2.37029 6.70267 3.99114 6.70267 6.28472L6.70267 10.1828C6.70267 12.3289 7.52844 13.4019 9.18 13.4019L9.18 16.5354" sodipodi:nodetypes="cccccccccccccccccccc"/>
</svg>
